<?xml version="1.0" encoding="UTF-8"?>
<svg id="Layer_1" data-name="Layer 1" xmlns="http://www.w3.org/2000/svg" xmlns:xlink="http://www.w3.org/1999/xlink" viewBox="0 0 749.29 210.56">
  <defs>
    <style>
      .cls-1 {
        fill: url(#linear-gradient);
      }

      .cls-1, .cls-2, .cls-3, .cls-4 {
        stroke-width: 0px;
      }

      .cls-2 {
        fill: url(#linear-gradient-2);
      }

      .cls-3 {
        fill: url(#linear-gradient-3);
      }

      .cls-4 {
        fill: #231f20;
      }
    </style>
    <linearGradient id="linear-gradient" x1="209.44" y1="363.7" x2="99.77" y2="-26.6" gradientTransform="translate(0 212) scale(1 -1)" gradientUnits="userSpaceOnUse">
      <stop offset="0" stop-color="#ffb500"/>
      <stop offset="1" stop-color="#ff701e"/>
    </linearGradient>
    <linearGradient id="linear-gradient-2" x1="244.01" y1="353.99" x2="134.34" y2="-36.31" gradientTransform="translate(0 212) scale(1 -1)" gradientUnits="userSpaceOnUse">
      <stop offset="0" stop-color="#ffb500"/>
      <stop offset="1" stop-color="#ff701e"/>
    </linearGradient>
    <linearGradient id="linear-gradient-3" x1="118.32" y1="389.31" x2="8.65" y2="-.99" gradientTransform="translate(0 212) scale(1 -1)" gradientUnits="userSpaceOnUse">
      <stop offset="0" stop-color="#ffb500"/>
      <stop offset="1" stop-color="#ff701e"/>
    </linearGradient>
  </defs>
  <path class="cls-1" d="m180.2,14.59V0h-48.64v14.59h-14.6v48.65h14.6v14.59h48.64v-14.59h14.6V14.59h-14.6Z"/>
  <path class="cls-2" d="m180.2,132.73h-48.64v14.59h-14.6v48.65h14.6v14.59h48.64v-14.59h14.6v-48.65h-14.6v-14.59Z"/>
  <path class="cls-3" d="m63.24,66.36H14.59v14.6H0v48.64h14.59v14.6h48.65v-14.6h14.59v-48.64h-14.59v-14.6Z"/>
  <path class="cls-4" d="m319.55,132.88h13.87v-55.32h-13.87v55.32Z"/>
  <path class="cls-4" d="m319.55,77.56v-13.86h-41.58v13.86h41.58Z"/>
  <path class="cls-4" d="m277.97,132.88v-55.32h-13.86v55.44h13.86v13.75h41.58v-13.87h-41.58Z"/>
  <path class="cls-4" d="m388.86,146.87h13.87v-69.31h-13.87v69.31Z"/>
  <path class="cls-4" d="m347.28,63.7v83.17h13.86v-69.31h27.72v-13.86h-41.58Z"/>
  <path class="cls-4" d="m541.36,146.87h13.86v-69.31h-13.86v69.31Z"/>
  <path class="cls-4" d="m555.22,49.83h-13.86v13.86h13.86v-13.86Z"/>
  <path class="cls-4" d="m472.05,63.7h-13.86v83.17h13.86v-55.45h13.86v-13.86h-13.86v-13.86Z"/>
  <path class="cls-4" d="m485.91,63.7v13.86h27.73v-13.86h-27.73Z"/>
  <path class="cls-4" d="m596.81,91.42h-13.86v13.86h13.86v-13.86Z"/>
  <path class="cls-4" d="m610.67,105.28h-13.86v13.86h13.86v-13.86Z"/>
  <path class="cls-4" d="m624.53,119.14h-13.86v13.86h13.86v-13.86Z"/>
  <path class="cls-4" d="m652.26,105.28h-13.86v27.72h13.86v-27.72Z"/>
  <path class="cls-4" d="m735.43,91.42h13.86v-13.86h-13.86v-27.73h-13.86v83.17h13.86v-41.58Z"/>
  <path class="cls-4" d="m749.29,133h-13.86v13.86h13.86v-13.86Z"/>
  <path class="cls-4" d="m693.84,91.42h-41.58v13.86h41.58v27.72h-41.58v13.87h55.45v-69.31h-13.87v13.86Z"/>
  <path class="cls-4" d="m652.26,63.7v13.86h41.58v-13.86h-41.58Z"/>
  <path class="cls-4" d="m610.67,63.73h-27.72v13.83h-13.86v13.86h13.86v-13.83h27.72v13.83h13.86v-13.86h-13.86v-13.83Z"/>
  <path class="cls-4" d="m582.95,133v13.87h27.72v-13.87h-27.72Z"/>
  <path class="cls-4" d="m582.95,119.14h-13.86v13.86h13.86v-13.86Z"/>
  <path class="cls-4" d="m513.64,146.87h13.86v-69.31h-13.86v69.31Z"/>
  <path class="cls-4" d="m430.45,146.87h13.86v-69.31h-13.86v69.31Z"/>
  <path class="cls-4" d="m402.73,63.7v13.86h27.72v-13.86h-27.72Z"/>
</svg>