<svg width="579" height="166" viewBox="0 0 579 166" fill="none" xmlns="http://www.w3.org/2000/svg">
<mask id="mask0_678_3" style="mask-type:alpha" maskUnits="userSpaceOnUse" x="2" y="1" width="92" height="91">
<path d="M2.87305 14.8779C2.87305 7.46438 8.88286 1.45459 16.2963 1.45459H79.6684C87.0819 1.45459 93.0917 7.4644 93.0917 14.8779V78.25C93.0917 85.6635 87.0819 91.6732 79.6684 91.6732H16.2963C8.88284 91.6732 2.87305 85.6634 2.87305 78.25V14.8779Z" fill="black"/>
</mask>
<g mask="url(#mask0_678_3)">
<path d="M116.691 58.1983H73.5063L72.9362 24.7049L32.3166 25.275L39.4428 -22.8984H-20.9878L-27.5439 -51.546L-185.889 -110.266H-223.943V208.42H333.329V123.332H270.333V102.951H198.928V87.2734H116.691V58.1983Z" fill="black"/>
</g>
<path d="M542.256 91.8155H471.784V66.9824H544.135C548.833 66.9824 551.787 66.3112 551.787 62.9554C551.787 60.1365 548.833 59.4654 543.33 59.0627L504.268 56.378C477.556 54.633 470.441 47.3844 470.441 29.7999C470.441 12.3496 477.824 2.01367 505.208 2.01367H571.653V26.8468L503.328 26.7125C499.436 26.7125 495.677 26.981 495.677 30.7395C495.677 33.5584 498.228 34.3638 504.134 34.7665L543.196 37.3169C570.176 39.062 577.022 46.579 577.022 64.0293C577.022 73.2914 574.472 80.2715 569.371 84.9696C564.27 89.5335 555.277 91.8155 542.256 91.8155Z" fill="black"/>
<path d="M349.352 2.01367H455.664V26.8468H415.26V91.8155H389.89V26.8468H349.352V2.01367Z" fill="black"/>
<path d="M357.42 82.1505L335.54 93.8288L323.594 77.1839H255.538L243.591 93.8288L221.711 82.1505L276.612 6.44318C279.7 2.14772 284.129 0 289.633 0C295.136 0 299.432 2.14772 302.519 6.44318L357.42 82.1505ZM288.693 31.2763L270.437 56.6463H308.828L290.572 31.2763C289.901 30.3366 289.364 30.3366 288.693 31.2763Z" fill="black"/>
<path d="M178.883 91.8155H108.411V66.9824H180.762C185.46 66.9824 188.414 66.3112 188.414 62.9554C188.414 60.1365 185.46 59.4654 179.957 59.0627L140.895 56.378C114.183 54.633 107.068 47.3844 107.068 29.7999C107.068 12.3496 114.451 2.01367 141.835 2.01367H208.28V26.8468L139.955 26.7125C136.063 26.7125 132.304 26.981 132.304 30.7395C132.304 33.5584 134.855 34.3638 140.761 34.7665L179.823 37.3169C206.803 39.062 213.649 46.579 213.649 64.0293C213.649 73.2914 211.099 80.2715 205.998 84.9696C200.897 89.5335 191.904 91.8155 178.883 91.8155Z" fill="black"/>
<path d="M558.559 155.154H518.007V148.804H559.63C562.308 148.804 563.992 148.421 563.992 146.508C563.685 144.748 562.079 144.366 559.171 144.289L536.523 142.759C521.297 141.764 517.242 137.633 517.242 127.61C517.242 117.663 521.45 111.771 537.059 111.771H575.315V118.045H537.059C527.036 118.045 523.746 120.417 523.746 127.61C523.746 131.053 524.664 133.425 526.5 134.802C528.413 136.179 531.856 137.021 536.906 137.327L559.554 138.857C563.915 139.163 566.746 139.852 568.2 140.999C569.653 142.07 570.342 144.136 570.342 147.12C570.342 150.257 569.5 152.4 567.894 153.547C566.287 154.619 563.226 155.154 558.559 155.154ZM558.559 162.958H518.007V156.684H558.559C563.609 156.684 567.052 155.996 568.965 154.619C570.878 153.241 571.872 150.716 571.872 147.12C571.872 140.081 569.194 137.939 559.63 137.327L536.982 135.796C527.648 135.184 525.276 133.425 525.276 127.61C525.276 124.473 526.118 122.407 527.724 121.259C529.331 120.111 532.468 119.576 537.059 119.576H575.315V125.926L535.988 125.85C533.769 125.85 531.627 126.003 531.627 128.145C531.627 129.752 533.08 130.211 536.447 130.441L559.095 131.894C574.474 132.889 578.376 137.174 578.376 147.12C578.376 156.99 574.168 162.958 558.559 162.958Z" fill="black"/>
<path d="M505.016 162.958H459.338C451.917 162.958 447.861 158.903 447.861 151.482V123.248C447.861 115.827 451.917 111.771 459.338 111.771H505.016V118.045H459.338C455.36 118.045 454.365 119.193 454.365 123.248V151.482C454.365 155.537 455.36 156.684 459.338 156.684H505.016V162.958ZM505.016 136.638H455.895V123.248C455.895 119.958 456.278 119.576 459.338 119.576H505.016V125.926H463.164C462.628 125.926 462.399 126.156 462.399 126.691V131.282H505.016V136.638ZM505.016 155.154H459.338C456.278 155.154 455.895 154.772 455.895 151.482V138.168H505.016V143.448H462.399V148.038C462.399 148.574 462.628 148.804 463.164 148.804H505.016V155.154Z" fill="black"/>
<path d="M379.351 163.035H372.848V123.325C372.848 115.903 376.903 111.771 384.325 111.771H415.771C430.462 111.771 436.506 117.433 436.506 129.752C436.506 138.704 432.834 144.366 425.565 146.661L436.736 157.603L431.15 161.122L413.705 142.07C418.526 141.994 421.433 141.688 424.188 140.77C428.243 139.316 430.003 136.179 430.003 129.752C430.003 125.391 428.932 122.33 426.789 120.57C424.723 118.811 421.051 117.892 415.771 117.892H384.325C380.422 117.892 379.351 119.117 379.351 123.325V163.035ZM410.186 140.54H380.882V123.325C380.882 119.958 381.341 119.423 384.325 119.423H415.771C420.592 119.423 423.958 120.188 425.718 121.642C427.554 123.095 428.472 125.85 428.472 129.752C428.472 134.878 427.401 137.786 424.341 139.086C422.734 139.775 421.51 140.081 418.755 140.311C416.001 140.54 414.165 140.54 410.186 140.54ZM387.385 126.691V134.725H416.689C419.98 134.725 421.969 134.419 421.969 130.364C421.969 126.691 420.362 125.926 416.689 125.926H388.15C387.615 125.926 387.385 126.156 387.385 126.691ZM429.85 161.887L424.494 165.254L408.885 147.809H387.385V163.035H380.882V142.07H411.563L429.85 161.887Z" fill="black"/>
<path d="M328.283 164.106C317.647 164.106 308.313 161.275 302.88 156.455C298.825 152.859 296.836 147.35 296.836 139.852V111.771H303.186V139.852C303.186 145.59 304.411 149.569 306.936 151.788C311.297 155.69 319.178 157.832 328.283 157.832C337.235 157.832 345.039 155.843 349.63 151.941C352.155 149.875 353.455 145.82 353.455 139.852V111.771H359.806V139.852C359.806 147.656 357.74 153.318 353.532 156.761C347.64 161.658 339.224 164.106 328.283 164.106ZM328.283 156.302C319.79 156.302 312.062 154.313 307.93 150.64C305.788 148.727 304.717 145.131 304.717 139.852V111.771H311.144V137.939C311.144 142.224 311.985 145.131 313.745 146.661C316.347 148.957 321.167 150.104 328.283 150.104C335.781 150.104 340.754 148.88 343.279 146.355C344.733 144.901 345.422 142.147 345.422 137.939V111.771H351.925V139.852C351.925 145.361 350.854 149.033 348.635 150.793C344.35 154.389 336.852 156.302 328.283 156.302Z" fill="black"/>
<path d="M287.649 118.045H227.051V111.771H287.649V118.045ZM256.585 162.958H250.158V125.926H227.051V119.576H256.585V162.958ZM264.619 162.958H258.115V119.576H287.649V125.926H264.619V162.958Z" fill="black"/>
<path d="M158.476 162.959H152.125V121.412C152.125 113.685 155.186 111.083 159.853 111.083C162.531 111.083 164.979 112.001 167.198 113.914L201.858 143.065C202.394 143.448 202.776 143.218 202.776 142.606V111.772H209.204V153.471C209.204 155.69 207.826 155.92 206.296 154.619L163.755 119.04C161.536 117.128 158.476 118.275 158.476 121.412V162.959ZM209.357 163.8C206.679 163.8 204.23 162.882 202.011 160.969L167.351 131.818C166.815 131.435 166.433 131.665 166.433 132.277V162.959H160.006V121.412C160.006 119.499 161.613 119.04 162.837 120.188L205.301 155.767C207.826 157.985 210.734 157.067 210.734 153.471V111.772H217.084V153.471C217.084 161.199 214.024 163.8 209.357 163.8Z" fill="black"/>
<path d="M138.37 162.958H92.6918C85.27 162.958 81.2148 158.903 81.2148 151.482V123.248C81.2148 115.827 85.27 111.771 92.6918 111.771H138.37V118.045H92.6918C88.7131 118.045 87.7184 119.193 87.7184 123.248V151.482C87.7184 155.537 88.7131 156.684 92.6918 156.684H138.37V162.958ZM138.37 136.638H89.2487V123.248C89.2487 119.958 89.6313 119.576 92.6918 119.576H138.37V125.926H96.5174C95.9818 125.926 95.7523 126.156 95.7523 126.691V131.282H138.37V136.638ZM138.37 155.154H92.6918C89.6313 155.154 89.2487 154.772 89.2487 151.482V138.168H138.37V143.448H95.7523V148.038C95.7523 148.574 95.9818 148.804 96.5174 148.804H138.37V155.154Z" fill="black"/>
<path d="M37.1852 155.919C36.6496 155.919 36.114 155.69 35.7315 155.154L6.96266 113.455L12.4716 110.471L36.6496 145.054C36.9557 145.437 37.4147 145.59 37.7208 145.054L61.8223 110.471L67.3312 113.455L38.4859 155.154C38.1034 155.69 37.7208 155.919 37.1852 155.919ZM37.1852 163.953C33.8952 163.953 31.4467 162.729 29.7635 160.281L0 117.127L5.58543 114.143L34.4307 155.919C35.1194 156.914 36.0375 157.45 37.1852 157.45C38.2564 157.45 39.098 156.99 39.7866 155.996L68.7085 114.143L74.2939 117.127L44.5304 160.281C42.8471 162.729 40.3987 163.953 37.1852 163.953Z" fill="black"/>
</svg>
