<svg width="129" height="129" viewBox="0 0 129 129" fill="none" xmlns="http://www.w3.org/2000/svg">
<path fill-rule="evenodd" clip-rule="evenodd" d="M15.0853 60.0683C12.3549 60.0683 10.0341 59.7127 8.12287 59.0017C6.21159 58.2907 4.65302 57.2952 3.4471 56.0154C2.24118 54.7355 1.36519 53.2139 0.819113 51.4505C0.273035 49.6871 0 47.7247 0 45.5631V0H9.0785V45.6485C9.0785 49.3459 11.0808 51.1945 15.0853 51.1945H44.9147C48.9192 51.1945 50.9215 49.3459 50.9215 45.6485V0H60V45.5631C60 47.7247 59.8294 49.6871 59.4881 51.4505C59.1468 53.2139 58.4869 54.7355 57.5085 56.0154C56.5301 57.2952 55.1877 58.2907 53.4812 59.0017C51.7747 59.7127 49.5563 60.0683 46.8259 60.0683H15.0853Z" fill="#191971"/>
<path fill-rule="evenodd" clip-rule="evenodd" d="M94.7143 60.0683V8.87372H77L69 0H129L120 8.87372H103.983V60.0683H94.7143Z" fill="#191971"/>
<path fill-rule="evenodd" clip-rule="evenodd" d="M49.3827 128.068L30 104.092L10.7407 128.068H0L24.8148 98.0341L0 68H10.679L30 92.0614L49.321 68H59.8765L35.2469 97.6075L60 128.068H49.3827Z" fill="#191971"/>
<path fill-rule="evenodd" clip-rule="evenodd" d="M83.6196 128.542C80.9735 128.542 78.7244 128.184 76.8721 127.467C75.0198 126.751 73.5094 125.748 72.3407 124.458C71.172 123.168 70.323 121.634 69.7938 119.857C69.2646 118.079 69 116.101 69 113.923V82.6196C69 80.441 69.2646 78.4631 69.7938 76.6858C70.323 74.9085 71.172 73.3749 72.3407 72.0849C73.5094 70.7949 75.0198 69.7916 76.8721 69.075C78.7244 68.3583 80.9735 68 83.6196 68H114.38C117.026 68 119.276 68.3583 121.128 69.075C122.98 69.7916 124.491 70.7949 125.659 72.0849C126.828 73.3749 127.677 74.9085 128.206 76.6858C128.735 78.4631 129 80.441 129 82.6196V113.923C129 116.101 128.735 118.079 128.206 119.857C127.677 121.634 126.828 123.168 125.659 124.458C124.491 125.748 122.98 126.751 121.128 127.467C119.276 128.184 117.026 128.542 114.38 128.542H83.6196ZM120.202 82.5336C120.202 78.807 118.261 76.9438 114.38 76.9438H83.6196C79.7387 76.9438 77.7982 78.807 77.7982 82.5336V114.009C77.7982 117.735 79.7387 119.599 83.6196 119.599H114.38C118.261 119.599 120.202 117.735 120.202 114.009V82.5336Z" fill="#191971"/>
</svg>
