<svg width="56" height="56" viewBox="0 0 56 56" fill="none" xmlns="http://www.w3.org/2000/svg">
<rect width="7.89036" height="7.89036" transform="translate(31.561) rotate(90)" fill="#F42F3B"/>
<rect width="7.89036" height="7.89036" transform="translate(55.2324 31.5615) rotate(-180)" fill="#F42F3B"/>
<rect width="7.89036" height="7.89036" transform="translate(31.561 15.7808) rotate(90)" fill="#FF701E"/>
<rect width="7.89036" height="7.89036" transform="translate(23.6709 15.7808) rotate(90)" fill="#F42F3B"/>
<rect width="7.89036" height="7.89036" transform="translate(23.6709 31.5615) rotate(90)" fill="#F42F3B"/>
<rect width="7.89036" height="7.89036" transform="translate(39.4517 31.5615) rotate(90)" fill="#F42F3B"/>
<rect width="7.89036" height="7.89036" transform="translate(39.4517 15.7808) rotate(90)" fill="#F42F3B"/>
<rect width="7.89036" height="7.89036" transform="translate(39.4517 31.5615) rotate(-180)" fill="#FFDE31"/>
<rect width="7.89036" height="7.89036" transform="translate(31.561 31.5615) rotate(90)" fill="#FF701E"/>
<rect width="7.89036" height="7.89036" transform="translate(23.6709 31.5615) rotate(-180)" fill="#FFDE31"/>
<rect width="7.89036" height="7.89036" transform="translate(31.561 39.4519) rotate(90)" fill="#F42F3B"/>
<rect width="7.89036" height="7.89036" transform="translate(15.7803 31.5615) rotate(-180)" fill="#F42F3B"/>
<rect width="7.89036" height="7.89036" transform="translate(31.561 47.3423) rotate(90)" fill="#F42F3B"/>
<rect width="7.89036" height="7.89036" transform="translate(7.89014 31.5615) rotate(-180)" fill="#F42F3B"/>
<rect width="7.89036" height="7.89036" transform="translate(31.561 7.89038) rotate(90)" fill="#F42F3B"/>
<rect width="7.89036" height="7.89036" transform="translate(47.3418 31.5615) rotate(-180)" fill="#F42F3B"/>
<rect width="7.89036" height="7.89036" transform="translate(31.561 23.6711) rotate(90)" fill="#FFF065"/>
</svg>
