<svg width="135" height="56" viewBox="0 0 135 56" fill="none" xmlns="http://www.w3.org/2000/svg">
<rect width="7.89036" height="7.89036" transform="translate(40.2375) rotate(90)" fill="#F42F3B"/>
<rect width="7.89036" height="7.89036" transform="matrix(4.37114e-08 1 1 -4.37114e-08 95.47 0)" fill="#F42F3B"/>
<rect width="7.89036" height="7.89036" transform="translate(63.9086 31.5615) rotate(-180)" fill="#F42F3B"/>
<rect width="7.89036" height="7.89036" transform="matrix(1 -8.74228e-08 -8.74228e-08 -1 71.7989 31.5615)" fill="#F42F3B"/>
<rect width="7.89036" height="7.89036" transform="translate(40.2375 15.7807) rotate(90)" fill="#FF701E"/>
<rect width="7.89036" height="7.89036" transform="matrix(4.37114e-08 1 1 -4.37114e-08 95.47 15.7807)" fill="#FF701E"/>
<rect width="7.89036" height="7.89036" transform="translate(32.3471 15.7807) rotate(90)" fill="#F42F3B"/>
<rect width="7.89036" height="7.89036" transform="matrix(4.37114e-08 1 1 -4.37114e-08 103.36 15.7807)" fill="#F42F3B"/>
<rect width="7.89036" height="7.89036" transform="translate(32.3471 31.5615) rotate(90)" fill="#F42F3B"/>
<rect width="7.89036" height="7.89036" transform="matrix(4.37114e-08 1 1 -4.37114e-08 103.36 31.5615)" fill="#F42F3B"/>
<rect width="7.89036" height="7.89036" transform="translate(48.1278 31.5615) rotate(90)" fill="#F42F3B"/>
<rect width="7.89036" height="7.89036" transform="matrix(4.37114e-08 1 1 -4.37114e-08 87.5797 31.5615)" fill="#F42F3B"/>
<rect width="7.89036" height="7.89036" transform="translate(48.1278 15.7807) rotate(90)" fill="#F42F3B"/>
<rect width="7.89036" height="7.89036" transform="matrix(4.37114e-08 1 1 -4.37114e-08 87.5797 15.7807)" fill="#F42F3B"/>
<rect width="7.89036" height="7.89036" transform="translate(48.1278 31.5615) rotate(-180)" fill="#FFDE31"/>
<rect width="7.89036" height="7.89036" transform="matrix(1 -8.74228e-08 -8.74228e-08 -1 87.5797 31.5615)" fill="#FFDE31"/>
<rect width="7.89036" height="7.89036" transform="translate(40.2375 31.5615) rotate(90)" fill="#FF701E"/>
<rect width="7.89036" height="7.89036" transform="matrix(4.37114e-08 1 1 -4.37114e-08 95.47 31.5615)" fill="#FF701E"/>
<rect width="7.89036" height="7.89036" transform="translate(32.3471 31.5615) rotate(-180)" fill="#FFDE31"/>
<rect width="7.89036" height="7.89036" transform="matrix(1 -8.74228e-08 -8.74228e-08 -1 103.36 31.5615)" fill="#FFDE31"/>
<rect width="7.89036" height="7.89036" transform="translate(40.2375 39.4518) rotate(90)" fill="#F42F3B"/>
<rect width="7.89036" height="7.89036" transform="matrix(4.37114e-08 1 1 -4.37114e-08 95.47 39.4518)" fill="#F42F3B"/>
<rect width="7.89036" height="7.89036" transform="translate(24.4567 31.5615) rotate(-180)" fill="#FF701E"/>
<rect width="7.89036" height="7.89036" transform="matrix(1 -8.74228e-08 -8.74228e-08 -1 111.251 31.5615)" fill="#FF701E"/>
<rect width="7.89036" height="7.89036" transform="translate(40.2375 47.3422) rotate(90)" fill="#F42F3B"/>
<rect width="7.89036" height="7.89036" transform="matrix(4.37114e-08 1 1 -4.37114e-08 95.47 47.3422)" fill="#F42F3B"/>
<rect width="7.89036" height="7.89036" transform="translate(16.5664 31.5615) rotate(-180)" fill="#FF701E"/>
<rect width="7.89036" height="7.89036" transform="matrix(1 -8.74228e-08 -8.74228e-08 -1 119.141 31.5615)" fill="#FF701E"/>
<rect width="7.89036" height="7.89036" transform="translate(8.67601 31.5615) rotate(-180)" fill="#F42F3B"/>
<rect width="7.89036" height="7.89036" transform="matrix(1 -8.74228e-08 -8.74228e-08 -1 127.031 31.5615)" fill="#F42F3B"/>
<rect width="7.89036" height="7.89036" transform="translate(40.2375 7.89038) rotate(90)" fill="#F42F3B"/>
<rect width="7.89036" height="7.89036" transform="matrix(4.37114e-08 1 1 -4.37114e-08 95.47 7.89038)" fill="#F42F3B"/>
<rect width="7.89036" height="7.89036" transform="translate(56.0182 31.5615) rotate(-180)" fill="#F42F3B"/>
<rect width="7.89036" height="7.89036" transform="matrix(1 -8.74228e-08 -8.74228e-08 -1 79.6893 31.5615)" fill="#F42F3B"/>
<rect width="7.89036" height="7.89036" transform="translate(40.2375 23.6711) rotate(90)" fill="#FFF065"/>
<rect width="7.89036" height="7.89036" transform="matrix(4.37114e-08 1 1 -4.37114e-08 95.47 23.6711)" fill="#FFF065"/>
</svg>
