<?xml version="1.0" encoding="UTF-8"?>
<!DOCTYPE svg PUBLIC "-//W3C//DTD SVG 1.1//EN" "http://www.w3.org/Graphics/SVG/1.1/DTD/svg11.dtd">
<svg xmlns="http://www.w3.org/2000/svg" version="1.1" width="138px" height="137px" style="shape-rendering:geometricPrecision; text-rendering:geometricPrecision; image-rendering:optimizeQuality; fill-rule:evenodd; clip-rule:evenodd" xmlns:xlink="http://www.w3.org/1999/xlink">
<g><path style="opacity:0.969" fill="#191971" d="M -0.5,-0.5 C 2.83333,-0.5 6.16667,-0.5 9.5,-0.5C 9.04103,17.2358 9.54103,34.9025 11,52.5C 11.7504,53.1258 12.5838,53.6258 13.5,54C 25.8333,54.6667 38.1667,54.6667 50.5,54C 51.4162,53.6258 52.2496,53.1258 53,52.5C 54.459,34.9025 54.959,17.2358 54.5,-0.5C 57.8333,-0.5 61.1667,-0.5 64.5,-0.5C 64.6666,18.5029 64.4999,37.5029 64,56.5C 63.3102,59.196 61.8102,61.3626 59.5,63C 42.5914,64.6375 25.5914,64.9709 8.5,64C 4.28983,62.286 1.28983,59.4527 -0.5,55.5C -0.5,36.8333 -0.5,18.1667 -0.5,-0.5 Z"/></g>
<g><path style="opacity:0.933" fill="#191971" d="M 72.5,-0.5 C 94.1667,-0.5 115.833,-0.5 137.5,-0.5C 137.5,-0.166667 137.5,0.166667 137.5,0.5C 134.369,3.12879 131.369,5.96213 128.5,9C 122.509,9.49949 116.509,9.66615 110.5,9.5C 110.5,27.8333 110.5,46.1667 110.5,64.5C 106.833,64.5 103.167,64.5 99.5,64.5C 99.5,46.1667 99.5,27.8333 99.5,9.5C 93.1579,9.66621 86.8246,9.49954 80.5,9C 77.2232,6.23365 74.5566,3.06698 72.5,-0.5 Z"/></g>
<g><path style="opacity:0.923" fill="#1b1a72" d="M -0.5,71.5 C 3.84611,71.3343 8.17944,71.501 12.5,72C 18.6392,80.44 25.1392,88.6067 32,96.5C 38.8608,88.6067 45.3608,80.44 51.5,72C 55.8333,71.3333 60.1667,71.3333 64.5,72C 56.0221,82.6456 47.3554,93.1456 38.5,103.5C 47.4248,114.379 56.0915,125.379 64.5,136.5C 60.1667,136.5 55.8333,136.5 51.5,136.5C 45.4917,127.835 38.9917,119.501 32,111.5C 25.4913,119.863 18.9913,128.197 12.5,136.5C 8.16667,136.5 3.83333,136.5 -0.5,136.5C -0.5,135.833 -0.5,135.167 -0.5,134.5C 8.67675,124.819 17.3434,114.652 25.5,104C 17.3434,93.3477 8.67675,83.1811 -0.5,73.5C -0.5,72.8333 -0.5,72.1667 -0.5,71.5 Z"/></g>
<g><path style="opacity:0.95" fill="#191971" d="M 137.5,80.5 C 137.5,96.1667 137.5,111.833 137.5,127.5C 135.5,131.5 132.5,134.5 128.5,136.5C 112.833,136.5 97.1667,136.5 81.5,136.5C 77.5212,134.685 74.6878,131.685 73,127.5C 72.044,110.767 72.3774,94.0999 74,77.5C 75.9605,74.8647 78.4605,73.0314 81.5,72C 97.1667,71.3333 112.833,71.3333 128.5,72C 132.685,73.6878 135.685,76.5212 137.5,80.5 Z M 85.5,81.5 C 98.5043,81.3334 111.504,81.5001 124.5,82C 125.333,82.8333 126.167,83.6667 127,84.5C 127.667,97.5 127.667,110.5 127,123.5C 126.167,124.333 125.333,125.167 124.5,126C 111.5,126.667 98.5,126.667 85.5,126C 84.6667,125.167 83.8333,124.333 83,123.5C 82.3333,110.5 82.3333,97.5 83,84.5C 84.045,83.6266 84.8783,82.6266 85.5,81.5 Z"/></g>
</svg>
