<svg width="357" height="56" viewBox="0 0 357 56" fill="none" xmlns="http://www.w3.org/2000/svg">
<path d="M156.92 6.43994H160.76V37.1599H176.12V40.9999H156.92V6.43994Z" fill="#202020"/>
<path d="M183.822 37.1599H179.982V29.4799H183.822V37.1599H195.342V29.4799H183.822V25.6399H195.342V21.7999H183.822V17.9599H195.342V21.7999H199.182V40.9999H183.822V37.1599Z" fill="#202020"/>
<path d="M203.045 21.7999H206.885V25.6399H203.045V21.7999ZM206.885 25.6399H210.725V29.4799H206.885V25.6399ZM210.725 29.4799H214.565V33.3199H210.725V29.4799ZM214.565 33.3199H218.405V37.1599H214.565V33.3199ZM206.885 37.1599H214.565V40.9999H206.885V37.1599ZM203.045 33.3199H206.885V37.1599H203.045V33.3199ZM206.885 17.9599H214.565V21.7999H206.885V17.9599ZM214.565 21.7999H218.405V25.6399H214.565V21.7999Z" fill="#202020"/>
<path d="M226.104 37.1599H222.264V21.7999H226.104V25.6399H237.624V21.7999H226.104V17.9599H237.624V21.7999H241.464V29.4799H226.104V37.1599H237.624V40.9999H226.104V37.1599ZM237.624 33.3199H241.464V37.1599H237.624V33.3199Z" fill="#202020"/>
<path d="M245.326 17.9599H253.006V21.7999H249.166V40.9999H245.326V17.9599Z" fill="#202020"/>
<path d="M256.857 40.9999H272.217V44.8399H256.857V40.9999Z" fill="#202020"/>
<path d="M276.076 6.43994H295.276V10.2799H279.916V21.7999H291.436V25.6399H279.916V37.1599H295.276V40.9999H276.076V6.43994Z" fill="#202020"/>
<path d="M302.979 33.3199H299.139V17.9599H302.979V33.3199H310.659V37.1599H306.819V44.8399H302.979V33.3199ZM310.659 17.9599H314.499V33.3199H310.659V17.9599ZM295.299 44.8399H302.979V48.6799H295.299V44.8399Z" fill="#202020"/>
<path d="M322.197 37.1599H318.357V21.7999H322.197V25.6399H333.717V21.7999H322.197V17.9599H333.717V21.7999H337.557V29.4799H322.197V37.1599H333.717V40.9999H322.197V37.1599ZM333.717 33.3199H337.557V37.1599H333.717V33.3199Z" fill="#202020"/>
<path d="M341.42 21.7999H345.26V25.6399H341.42V21.7999ZM345.26 25.6399H349.1V29.4799H345.26V25.6399ZM349.1 29.4799H352.94V33.3199H349.1V29.4799ZM352.94 33.3199H356.78V37.1599H352.94V33.3199ZM345.26 37.1599H352.94V40.9999H345.26V37.1599ZM341.42 33.3199H345.26V37.1599H341.42V33.3199ZM345.26 17.9599H352.94V21.7999H345.26V17.9599ZM352.94 21.7999H356.78V25.6399H352.94V21.7999Z" fill="#202020"/>
<rect width="7.89036" height="7.89036" transform="translate(39.4519) rotate(90)" fill="#F42F3B"/>
<rect width="7.89036" height="7.89036" transform="matrix(4.37114e-08 1 1 -4.37114e-08 94.6843 0)" fill="#F42F3B"/>
<rect width="7.89036" height="7.89036" transform="translate(63.1228 31.5615) rotate(-180)" fill="#F42F3B"/>
<rect width="7.89036" height="7.89036" transform="matrix(1 -8.74228e-08 -8.74228e-08 -1 71.0132 31.5615)" fill="#F42F3B"/>
<rect width="7.89036" height="7.89036" transform="translate(39.4519 15.7808) rotate(90)" fill="#FF701E"/>
<rect width="7.89036" height="7.89036" transform="matrix(4.37114e-08 1 1 -4.37114e-08 94.6843 15.7808)" fill="#FF701E"/>
<rect width="7.89036" height="7.89036" transform="translate(31.5615 15.7808) rotate(90)" fill="#F42F3B"/>
<rect width="7.89036" height="7.89036" transform="matrix(4.37114e-08 1 1 -4.37114e-08 102.575 15.7808)" fill="#F42F3B"/>
<rect width="7.89036" height="7.89036" transform="translate(31.5615 31.5615) rotate(90)" fill="#F42F3B"/>
<rect width="7.89036" height="7.89036" transform="matrix(4.37114e-08 1 1 -4.37114e-08 102.575 31.5615)" fill="#F42F3B"/>
<rect width="7.89036" height="7.89036" transform="translate(47.3423 31.5615) rotate(90)" fill="#F42F3B"/>
<rect width="7.89036" height="7.89036" transform="matrix(4.37114e-08 1 1 -4.37114e-08 86.7939 31.5615)" fill="#F42F3B"/>
<rect width="7.89036" height="7.89036" transform="translate(47.3423 15.7808) rotate(90)" fill="#F42F3B"/>
<rect width="7.89036" height="7.89036" transform="matrix(4.37114e-08 1 1 -4.37114e-08 86.7939 15.7808)" fill="#F42F3B"/>
<rect width="7.89036" height="7.89036" transform="translate(47.3423 31.5615) rotate(-180)" fill="#FFDE31"/>
<rect width="7.89036" height="7.89036" transform="matrix(1 -8.74228e-08 -8.74228e-08 -1 86.7939 31.5615)" fill="#FFDE31"/>
<rect width="7.89036" height="7.89036" transform="translate(39.4519 31.5615) rotate(90)" fill="#FF701E"/>
<rect width="7.89036" height="7.89036" transform="matrix(4.37114e-08 1 1 -4.37114e-08 94.6843 31.5615)" fill="#FF701E"/>
<rect width="7.89036" height="7.89036" transform="translate(31.5615 31.5614) rotate(-180)" fill="#FFDE31"/>
<rect width="7.89036" height="7.89036" transform="matrix(1 -8.74228e-08 -8.74228e-08 -1 102.575 31.5614)" fill="#FFDE31"/>
<rect width="7.89036" height="7.89036" transform="translate(39.4519 39.4518) rotate(90)" fill="#F42F3B"/>
<rect width="7.89036" height="7.89036" transform="matrix(4.37114e-08 1 1 -4.37114e-08 94.6843 39.4518)" fill="#F42F3B"/>
<rect width="7.89036" height="7.89036" transform="translate(23.6711 31.5614) rotate(-180)" fill="#FF701E"/>
<rect width="7.89036" height="7.89036" transform="matrix(1 -8.74228e-08 -8.74228e-08 -1 110.465 31.5614)" fill="#FF701E"/>
<rect width="7.89036" height="7.89036" transform="translate(39.4519 47.3422) rotate(90)" fill="#F42F3B"/>
<rect width="7.89036" height="7.89036" transform="matrix(4.37114e-08 1 1 -4.37114e-08 94.6843 47.3422)" fill="#F42F3B"/>
<rect width="7.89036" height="7.89036" transform="translate(15.7808 31.5614) rotate(-180)" fill="#FF701E"/>
<rect width="7.89036" height="7.89036" transform="matrix(1 -8.74228e-08 -8.74228e-08 -1 118.355 31.5614)" fill="#FF701E"/>
<rect width="7.89036" height="7.89036" transform="translate(7.89038 31.5614) rotate(-180)" fill="#F42F3B"/>
<rect width="7.89036" height="7.89036" transform="matrix(1 -8.74228e-08 -8.74228e-08 -1 126.246 31.5614)" fill="#F42F3B"/>
<rect width="7.89036" height="7.89036" transform="translate(39.4519 7.89038) rotate(90)" fill="#F42F3B"/>
<rect width="7.89036" height="7.89036" transform="matrix(4.37114e-08 1 1 -4.37114e-08 94.6843 7.89038)" fill="#F42F3B"/>
<rect width="7.89036" height="7.89036" transform="translate(55.2327 31.5615) rotate(-180)" fill="#F42F3B"/>
<rect width="7.89036" height="7.89036" transform="matrix(1 -8.74228e-08 -8.74228e-08 -1 78.9036 31.5615)" fill="#F42F3B"/>
<rect width="7.89036" height="7.89036" transform="translate(39.4519 23.6711) rotate(90)" fill="#FFF065"/>
<rect width="7.89036" height="7.89036" transform="matrix(4.37114e-08 1 1 -4.37114e-08 94.6843 23.6711)" fill="#FFF065"/>
</svg>
