<svg width="750" height="211" viewBox="0 0 750 211" fill="none" xmlns="http://www.w3.org/2000/svg">
<path d="M180.264 14.5898V-0.000244141H131.624V14.5898H117.024V63.2398H131.624V77.8298H180.264V63.2398H194.864V14.5898H180.264Z" fill="url(#paint0_linear_280_1391)"/>
<path d="M180.264 132.73H131.624V147.32H117.024V195.97H131.624V210.56H180.264V195.97H194.864V147.32H180.264V132.73Z" fill="url(#paint1_linear_280_1391)"/>
<path d="M63.3045 66.3598H14.6545V80.9598H0.0644531V129.6H14.6545V144.2H63.3045V129.6H77.8945V80.9598H63.3045V66.3598Z" fill="url(#paint2_linear_280_1391)"/>
<path d="M319.614 132.88H333.484V77.5598H319.614V132.88Z" fill="white"/>
<path d="M319.614 77.5598V63.6998H278.034V77.5598H319.614Z" fill="white"/>
<path d="M278.034 132.88V77.5598H264.174V133H278.034V146.75H319.614V132.88H278.034Z" fill="white"/>
<path d="M388.924 146.87H402.794V77.5598H388.924V146.87Z" fill="white"/>
<path d="M347.344 63.6998V146.87H361.204V77.5598H388.924V63.6998H347.344Z" fill="white"/>
<path d="M541.424 146.87H555.284V77.5598H541.424V146.87Z" fill="white"/>
<path d="M555.284 49.8298H541.424V63.6898H555.284V49.8298Z" fill="white"/>
<path d="M472.114 63.6998H458.254V146.87H472.114V91.4198H485.974V77.5598H472.114V63.6998Z" fill="white"/>
<path d="M485.974 63.6998V77.5598H513.704V63.6998H485.974Z" fill="white"/>
<path d="M596.874 91.4198H583.014V105.28H596.874V91.4198Z" fill="white"/>
<path d="M610.734 105.28H596.874V119.14H610.734V105.28Z" fill="white"/>
<path d="M624.594 119.14H610.734V133H624.594V119.14Z" fill="white"/>
<path d="M652.324 105.28H638.464V133H652.324V105.28Z" fill="white"/>
<path d="M735.494 91.4198H749.354V77.5598H735.494V49.8298H721.634V133H735.494V91.4198Z" fill="white"/>
<path d="M749.354 133H735.494V146.86H749.354V133Z" fill="white"/>
<path d="M693.904 91.4198H652.324V105.28H693.904V133H652.324V146.87H707.774V77.5598H693.904V91.4198Z" fill="white"/>
<path d="M652.324 63.6998V77.5598H693.904V63.6998H652.324Z" fill="white"/>
<path d="M610.734 63.7298H583.014V77.5598H569.154V91.4198H583.014V77.5898H610.734V91.4198H624.594V77.5598H610.734V63.7298Z" fill="white"/>
<path d="M583.014 133V146.87H610.734V133H583.014Z" fill="white"/>
<path d="M583.014 119.14H569.154V133H583.014V119.14Z" fill="white"/>
<path d="M513.704 146.87H527.564V77.5598H513.704V146.87Z" fill="white"/>
<path d="M430.514 146.87H444.374V77.5598H430.514V146.87Z" fill="white"/>
<path d="M402.794 63.6998V77.5598H430.514V63.6998H402.794Z" fill="white"/>
<defs>
<linearGradient id="paint0_linear_280_1391" x1="749.354" y1="-0.000244141" x2="639.676" y2="390.299" gradientUnits="userSpaceOnUse">
<stop stop-color="#FFB500"/>
<stop offset="1" stop-color="#FF701E"/>
</linearGradient>
<linearGradient id="paint1_linear_280_1391" x1="749.354" y1="-0.000244141" x2="639.676" y2="390.299" gradientUnits="userSpaceOnUse">
<stop stop-color="#FFB500"/>
<stop offset="1" stop-color="#FF701E"/>
</linearGradient>
<linearGradient id="paint2_linear_280_1391" x1="749.354" y1="-0.000244141" x2="639.676" y2="390.299" gradientUnits="userSpaceOnUse">
<stop stop-color="#FFB500"/>
<stop offset="1" stop-color="#FF701E"/>
</linearGradient>
</defs>
</svg>
