<?xml version="1.0" encoding="UTF-8"?>
<svg id="Layer_2" data-name="Layer 2" xmlns="http://www.w3.org/2000/svg" viewBox="0 0 700 568.75">
  <defs>
    <style>
      .cls-1 {
        fill: currentColor;
        stroke-width: 0px;
      }
    </style>
  </defs>
  <g id="Layer_1-2" data-name="Layer 1">
    <polygon class="cls-1" points="218.75 481.25 218.75 437.5 218.75 350 175 350 175 437.5 131.25 437.5 131.25 131.37 175 131.37 175 218.75 218.75 218.75 218.75 87.62 218.75 87.5 87.5 87.5 87.5 87.62 87.5 481.25 87.5 481.33 218.75 481.25"/>
    <polygon class="cls-1" points="218.75 262.54 218.75 306.29 262.5 306.29 262.5 481.33 306.25 481.33 306.25 306.29 350 306.29 350 481.33 393.75 481.33 393.75 306.29 437.5 306.29 437.5 481.25 481.25 481.25 481.25 306.25 437.5 306.25 437.5 262.54 393.75 262.54 393.75 131.25 437.5 131.25 437.5 262.5 481.25 262.5 481.25 131.25 481.25 87.5 437.5 87.5 393.75 87.5 350 87.5 350 131.25 350 262.54 306.25 262.54 306.25 87.5 262.5 87.5 262.5 262.54 218.75 262.54"/>
    <polygon class="cls-1" points="568.75 481.25 612.5 481.25 612.5 437.5 568.75 437.5 568.75 87.5 525 87.5 525 481.25 525 481.33 568.75 481.33 568.75 481.25"/>
    <path class="cls-1" d="m656.25,0H0v568.75h700V0h-43.75Zm0,525H43.75V43.75h612.5v481.25Z"/>
  </g>
</svg>