<svg width="700" height="569" viewBox="0 0 700 569" fill="none" xmlns="http://www.w3.org/2000/svg">
<g clip-path="url(#clip0_67_127)">
<path d="M218.75 481.25V437.5V350H175V437.5H131.25V131.37H175V218.75H218.75V87.62V87.5H87.5V87.62V481.25V481.33L218.75 481.25Z" fill="black"/>
<path d="M218.75 262.54V306.29H262.5V481.33H306.25V306.29H350V481.33H393.75V306.29H437.5V481.25H481.25V306.25H437.5V262.54H393.75V131.25H437.5V262.5H481.25V131.25V87.5H437.5H393.75H350V131.25V262.54H306.25V87.5H262.5V262.54H218.75Z" fill="black"/>
<path d="M568.75 481.25H612.5V437.5H568.75V87.5H525V481.25V481.33H568.75V481.25Z" fill="black"/>
<path d="M656.25 0H0V568.75H700V0H656.25ZM656.25 525H43.75V43.75H656.25V525Z" fill="black"/>
</g>
<defs>
<clipPath id="clip0_67_127">
<rect width="700" height="568.75" fill="white"/>
</clipPath>
</defs>
</svg>
