<svg width="2536" height="345" viewBox="0 0 2536 345" fill="none" xmlns="http://www.w3.org/2000/svg">
<g clip-path="url(#clip0_67_86)">
<mask id="mask0_67_86" style="mask-type:luminance" maskUnits="userSpaceOnUse" x="0" y="0" width="2536" height="345">
<path d="M2536 0H0V345H2536V0Z" fill="white"/>
</mask>
<g mask="url(#mask0_67_86)">
<path d="M227.977 89.547C227.977 105.744 223.117 118.24 213.398 127.032C203.679 135.825 191.414 140.221 176.603 140.221C161.793 140.221 149.528 135.825 139.809 127.032C130.09 118.24 125.23 105.744 125.23 89.547C125.23 80.2918 126.85 70.3421 130.09 59.6982C133.33 49.0543 137.495 39.336 142.586 30.5433C147.677 21.7505 153.231 14.5775 159.247 9.02416C165.264 3.00805 171.049 0 176.603 0C182.157 0 187.942 3.00805 193.959 9.02416C199.976 14.5775 205.53 21.7505 210.621 30.5433C215.712 39.336 219.877 49.0543 223.117 59.6982C226.357 70.3421 227.977 80.2918 227.977 89.547ZM319.615 207.555C312.673 207.555 307.119 206.167 302.954 203.39C298.788 200.151 294.854 196.68 291.152 192.978C287.449 188.813 283.516 185.342 279.35 182.565C275.185 179.326 269.862 177.706 263.383 177.706C255.514 177.706 249.035 180.483 243.944 186.036C238.853 191.589 236.307 198.531 236.307 206.861C236.307 212.415 237.233 217.274 239.084 221.439C241.398 225.141 243.712 228.612 246.026 231.851C248.341 235.09 250.423 238.099 252.275 240.875C254.589 243.652 255.746 246.66 255.746 249.9C255.746 254.064 254.126 257.304 250.886 259.618C248.109 261.469 245.101 262.394 241.861 262.394C238.158 262.394 233.993 260.775 229.365 257.535C225.2 253.833 221.266 249.205 217.563 243.652C214.324 238.098 211.547 231.851 209.233 224.91C206.918 217.505 205.761 210.1 205.761 202.696C205.761 193.44 207.613 184.185 211.315 174.929C215.018 165.674 220.34 157.344 227.282 149.94C234.225 142.073 242.787 135.825 252.969 131.197C263.151 126.57 274.953 124.256 288.375 124.256C309.202 124.256 325.169 129.577 336.277 140.221C347.385 150.402 352.939 161.278 352.939 172.847C352.939 181.64 349.931 189.739 343.914 197.143C337.897 204.085 329.797 207.555 319.615 207.555ZM33.5913 207.555C23.4092 207.555 15.3098 204.085 9.29312 197.143C3.27641 189.739 0.268066 181.64 0.268066 172.847C0.268066 161.278 5.82196 150.402 16.9297 140.221C28.0374 129.577 44.0047 124.256 64.8318 124.256C78.2536 124.256 90.0555 126.57 100.237 131.197C110.42 135.825 118.982 142.073 125.924 149.94C132.867 157.344 138.189 165.674 141.892 174.929C145.594 184.185 147.446 193.44 147.446 202.696C147.446 210.1 146.289 217.505 143.975 224.91C141.661 231.851 138.652 238.098 134.95 243.652C131.71 249.205 127.776 253.833 123.147 257.535C118.982 260.775 115.048 262.394 111.345 262.394C108.105 262.394 104.866 261.469 101.626 259.618C98.8493 257.304 97.4605 254.064 97.4605 249.9C97.4605 246.66 98.3864 243.652 100.237 240.875C102.552 238.099 104.866 235.09 107.18 231.851C109.494 228.612 111.577 225.141 113.428 221.439C115.742 217.274 116.899 212.415 116.899 206.861C116.899 198.531 114.354 191.589 109.263 186.036C104.171 180.483 97.6923 177.706 89.8243 177.706C83.3446 177.706 78.0225 179.326 73.8567 182.565C69.6916 185.342 65.7576 188.813 62.0549 192.978C58.3521 196.68 54.4183 200.151 50.2529 203.39C46.0875 206.167 40.5336 207.555 33.5913 207.555ZM220.34 301.962C220.34 314.919 216.406 325.332 208.538 333.199C200.67 341.066 190.025 345 176.603 345C163.181 345 152.537 341.066 144.669 333.199C136.801 325.332 132.867 314.919 132.867 301.962C132.867 289.004 136.801 278.592 144.669 270.724C152.537 262.857 163.181 258.924 176.603 258.924C190.025 258.924 200.67 262.857 208.538 270.724C216.406 278.592 220.34 289.004 220.34 301.962Z" fill="black"/>
<path d="M498.558 241.693H598.398V264.631H471.969V75.655H498.558V241.693Z" fill="black"/>
<path d="M601.084 227.618C601.084 194.514 638.359 184.87 695.968 178.353V174.965C695.968 149.421 681.632 140.819 664.168 140.819C644.616 140.819 633.143 151.506 632.103 168.709H607.599C609.946 138.473 636.536 121.53 663.903 121.53C702.489 121.53 719.954 140.037 719.689 179.396L719.431 211.717C719.172 235.177 720.471 251.337 723.082 264.631H699.097C698.315 259.418 697.532 253.683 697.274 245.342C688.671 259.678 674.07 268.02 649.308 268.02C622.976 268.02 601.084 253.423 601.084 227.618ZM697.797 197.121C654.783 201.552 627.41 207.808 627.41 227.096C627.41 240.39 637.577 249.252 654.524 249.252C676.681 249.252 697.797 239.087 697.797 205.983V197.121Z" fill="black"/>
<path d="M848.652 124.398L798.604 270.626C788.437 301.123 781.14 310.246 749.857 310.246H737.603V290.436H747.246C762.888 290.436 770.45 289.393 776.706 267.498L777.747 264.631L727.177 124.398H753.503L789.22 232.57L823.89 124.398H848.652Z" fill="black"/>
<path d="M872.913 202.334C873.954 232.57 895.329 247.167 916.186 247.167C937.038 247.167 948.51 237.783 954.508 223.968H979.011C972.49 248.21 950.333 268.02 916.186 268.02C871.866 268.02 847.363 236.219 847.363 194.775C847.363 150.463 877.082 122.052 915.404 122.052C958.154 122.052 983.962 158.022 980.834 202.334H872.913ZM873.172 182.002H955.807C955.29 162.193 940.43 142.383 915.404 142.383C894.288 142.383 875.259 153.852 873.172 182.002Z" fill="black"/>
<path d="M1070.53 149.16C1065.57 148.639 1061.14 148.117 1057.23 148.117C1035.33 148.117 1024.38 160.368 1024.38 191.125V264.631H1000.66V124.398H1023.86V148.899C1030.9 132.999 1045.23 124.137 1063.49 123.616C1065.83 123.616 1067.92 123.616 1070.53 123.876V149.16Z" fill="black"/>
<path d="M1167.7 264.631V116.838H1123.9V100.678C1151.02 99.6354 1164.83 96.2469 1175.26 75.655H1191.42V264.631H1167.7Z" fill="black"/>
<path d="M1285.39 75.655H1408.17V98.5924H1311.98V155.937H1402.7V178.875H1311.98V264.631H1285.39V75.655Z" fill="black"/>
<path d="M1545.18 195.035C1545.18 245.864 1510.51 268.02 1477.92 268.02C1445.34 268.02 1410.67 245.864 1410.67 195.035C1410.67 144.208 1445.34 122.052 1477.92 122.052C1510.51 122.052 1545.18 144.208 1545.18 195.035ZM1477.92 247.167C1499.29 247.167 1519.89 231.006 1519.89 195.035C1519.89 157.762 1499.29 142.904 1477.92 142.904C1456.54 142.904 1435.95 156.719 1435.95 195.035C1435.95 232.309 1456.54 247.167 1477.92 247.167Z" fill="black"/>
<path d="M1652.53 244.56C1644.46 257.854 1631.68 268.02 1608.48 268.02C1575.9 268.02 1563.64 246.124 1563.64 214.063V124.398H1587.36V207.026C1587.36 228.66 1591.02 247.428 1616.82 247.428C1639.24 247.428 1652.53 231.527 1652.53 201.552V124.398H1676.26V264.631H1652.53V244.56Z" fill="black"/>
<path d="M1729.79 145.511C1737.87 132.217 1751.43 122.052 1775.15 122.052C1809.04 122.052 1821.29 143.947 1821.29 176.008V264.631H1797.57V183.046C1797.57 161.411 1793.92 142.644 1766.81 142.644C1743.87 142.644 1729.79 158.544 1729.79 188.519V264.631H1706.07V124.398H1729.79V145.511Z" fill="black"/>
<path d="M1945.15 75.655H1968.87V264.631H1945.15V243.518C1936.54 258.375 1921.68 268.02 1899.27 268.02C1867.2 268.02 1839.31 241.432 1839.31 195.035C1839.31 148.899 1867.2 122.052 1899.27 122.052C1921.68 122.052 1936.54 131.696 1945.15 146.553V75.655ZM1905.27 142.383C1881.02 142.383 1865.12 161.672 1865.12 195.035C1865.12 228.4 1881.02 247.688 1905.27 247.688C1926.38 247.688 1946.19 232.049 1946.19 195.035C1946.19 158.022 1926.38 142.383 1905.27 142.383Z" fill="black"/>
<path d="M1990.12 227.618C1990.12 194.514 2027.4 184.87 2085.01 178.353V174.965C2085.01 149.421 2070.67 140.819 2053.2 140.819C2033.65 140.819 2022.19 151.506 2021.14 168.709H1996.64C1998.98 138.473 2025.57 121.53 2052.95 121.53C2091.53 121.53 2108.99 140.037 2108.73 179.396L2108.47 211.717C2108.21 235.177 2109.51 251.337 2112.12 264.631H2088.13C2087.35 259.418 2086.57 253.683 2086.31 245.342C2077.71 259.678 2063.11 268.02 2038.35 268.02C2012.02 268.02 1990.12 253.423 1990.12 227.618ZM2086.83 197.121C2043.82 201.552 2016.45 207.808 2016.45 227.096C2016.45 240.39 2026.61 249.252 2043.56 249.252C2065.72 249.252 2086.83 239.087 2086.83 205.983V197.121Z" fill="black"/>
<path d="M2143.03 89.2089H2166.76V124.398H2193.35V143.426H2166.76V226.575C2166.76 241.172 2167.8 244.821 2181.36 244.821H2193.35V264.631H2176.14C2149.29 264.631 2143.03 258.636 2143.03 229.442V143.426H2120.88V124.398H2143.03V89.2089Z" fill="black"/>
<path d="M2239.48 75.655V104.327H2215.76V75.655H2239.48ZM2239.48 124.398V264.631H2215.76V124.398H2239.48Z" fill="black"/>
<path d="M2394.67 195.035C2394.67 245.864 2360 268.02 2327.42 268.02C2294.83 268.02 2260.16 245.864 2260.16 195.035C2260.16 144.208 2294.83 122.052 2327.42 122.052C2360 122.052 2394.67 144.208 2394.67 195.035ZM2327.42 247.167C2348.8 247.167 2369.39 231.006 2369.39 195.035C2369.39 157.762 2348.8 142.904 2327.42 142.904C2306.04 142.904 2285.45 156.719 2285.45 195.035C2285.45 232.309 2306.04 247.167 2327.42 247.167Z" fill="black"/>
<path d="M2438.95 145.511C2447.03 132.217 2460.59 122.052 2484.31 122.052C2518.2 122.052 2530.45 143.947 2530.45 176.008V264.631H2506.73V183.046C2506.73 161.411 2503.08 142.644 2475.96 142.644C2453.03 142.644 2438.95 158.544 2438.95 188.519V264.631H2415.23V124.398H2438.95V145.511Z" fill="black"/>
</g>
</g>
<defs>
<clipPath id="clip0_67_86">
<rect width="2536" height="345" fill="white"/>
</clipPath>
</defs>
</svg>
