<svg width="271" height="48" viewBox="0 0 271 48" fill="none" xmlns="http://www.w3.org/2000/svg">
<path d="M94.1719 38.3594C91.4688 39.875 88.4453 40.6328 85.1016 40.6328C81.7578 40.6328 78.7266 39.875 76.0078 38.3594C73.3047 36.8438 71.1875 34.7578 69.6562 32.1016C68.125 29.4453 67.3594 26.4766 67.3594 23.1953C67.3594 19.9141 68.125 16.9453 69.6562 14.2891C71.1875 11.6328 73.3047 9.54688 76.0078 8.03125C78.7266 6.51562 81.7578 5.75781 85.1016 5.75781C88.4453 5.75781 91.4688 6.51562 94.1719 8.03125C96.875 9.54688 98.9844 11.6328 100.5 14.2891C102.031 16.9453 102.797 19.9141 102.797 23.1953C102.797 26.4766 102.031 29.4453 100.5 32.1016C98.9844 34.7578 96.875 36.8438 94.1719 38.3594ZM85.1016 35.3125C88.5703 35.3125 91.4531 34.1641 93.75 31.8672C96.0469 29.5547 97.1953 26.6641 97.1953 23.1953C97.1953 19.7266 96.0469 16.8438 93.75 14.5469C91.4531 12.2344 88.5703 11.0781 85.1016 11.0781C82.8203 11.0781 80.75 11.6094 78.8906 12.6719C77.0469 13.7188 75.6016 15.1719 74.5547 17.0312C73.5078 18.875 72.9844 20.9297 72.9844 23.1953C72.9844 25.4609 73.5078 27.5234 74.5547 29.3828C75.6016 31.2266 77.0469 32.6797 78.8906 33.7422C80.75 34.7891 82.8203 35.3125 85.1016 35.3125ZM128.297 40L121.078 27.5547H114.703V40H109.172V6.39062H122.25C125.5 6.39062 128.195 7.39063 130.336 9.39062C132.477 11.3906 133.547 13.9375 133.547 17.0312C133.547 19.2812 132.93 21.2812 131.695 23.0312C130.461 24.7656 128.805 26.0156 126.727 26.7812L134.484 40H128.297ZM114.703 11.5703V22.3984H121.945C123.758 22.3984 125.211 21.8984 126.305 20.8984C127.398 19.8828 127.945 18.5781 127.945 16.9844C127.945 15.4063 127.391 14.1094 126.281 13.0938C125.188 12.0781 123.742 11.5703 121.945 11.5703H114.703ZM163.078 40L160.195 32.6875H145.195L142.336 40H136.477L149.977 6.39062H155.18L169.078 40H163.078ZM152.648 13.5859L147.117 27.7422H158.273L152.648 13.5859ZM196.102 6.39062H201.492V40H196.875L179.414 16V40H174V6.39062H178.992L196.102 29.9922V6.39062ZM224.109 22.9375H242.062C242.016 26.3281 241.273 29.3672 239.836 32.0547C238.398 34.7422 236.398 36.8438 233.836 38.3594C231.273 39.875 228.367 40.6328 225.117 40.6328C222.68 40.6328 220.391 40.1953 218.25 39.3203C216.125 38.4453 214.305 37.2422 212.789 35.7109C211.273 34.1797 210.078 32.3359 209.203 30.1797C208.344 28.0078 207.914 25.6875 207.914 23.2188C207.914 20.75 208.344 18.4375 209.203 16.2812C210.062 14.125 211.242 12.2812 212.742 10.75C214.258 9.21875 216.07 8.01562 218.18 7.14062C220.305 6.25 222.578 5.80469 225 5.80469C229.094 5.80469 232.688 6.96875 235.781 9.29688C238.875 11.625 240.805 14.6172 241.57 18.2734H235.875C235.156 16.1172 233.812 14.3906 231.844 13.0938C229.891 11.7969 227.648 11.1484 225.117 11.1484C221.711 11.1484 218.922 12.2734 216.75 14.5234C214.594 16.7734 213.516 19.6719 213.516 23.2188C213.516 26.7969 214.586 29.7031 216.727 31.9375C218.867 34.1719 221.664 35.2891 225.117 35.2891C227.805 35.2891 230.141 34.5938 232.125 33.2031C234.125 31.8125 235.445 29.9766 236.086 27.6953H224.109V22.9375ZM253.875 34.7969H268.383V40H248.344V6.39062H267.867V11.5703H253.875V20.3359H266.625V25.3984H253.875V34.7969Z" fill="white"/>
<path d="M46.0442 28.9119C52.6617 25.484 54.9608 17.8421 51.1794 11.8432C47.3979 5.84428 38.968 3.76012 32.3505 7.18805L22.641 12.2177C25.3829 15.4868 27.9908 19.0465 30.3688 22.8782C32.6537 26.5599 34.6007 30.2901 36.2368 33.9923L46.0442 28.9119Z" fill="white"/>
<path d="M32.3505 35.9621L20.6495 42.0233C14.032 45.4513 5.60206 43.3671 1.82064 37.3682C-1.96077 31.3693 0.338311 23.7274 6.95579 20.2994L18.6895 14.2212C21.5166 17.502 24.2032 21.11 26.6297 25.0199C28.879 28.6441 30.7762 32.3204 32.3505 35.9621Z" fill="white"/>
</svg>
