<svg width="138" height="137" viewBox="0 0 138 137" fill="none" xmlns="http://www.w3.org/2000/svg">
<g clip-path="url(#clip0_67_124)">
<path opacity="0.97" fill-rule="evenodd" clip-rule="evenodd" d="M0 0H10C9.54 17.74 10.04 35.4 11.5 53C12.25 53.63 13.08 54.13 14 54.5C26.33 55.17 38.67 55.17 51 54.5C51.92 54.13 52.75 53.63 53.5 53C54.96 35.4 55.46 17.74 55 0H65C65.17 19 65 38 64.5 57C63.81 59.7 62.31 61.86 60 63.5C43.09 65.14 26.09 65.47 9 64.5C4.79 62.79 1.79 59.95 0 56V0Z" fill="black"/>
<path opacity="0.93" fill-rule="evenodd" clip-rule="evenodd" d="M73 0H138V1C134.87 3.63 131.87 6.46 129 9.5C123.01 10 117.01 10.17 111 10V65H100V10C93.66 10.17 87.32 10 81 9.5C77.72 6.73 75.06 3.57 73 0Z" fill="black"/>
<path opacity="0.92" fill-rule="evenodd" clip-rule="evenodd" d="M0 71.9999C4.35 71.8299 8.68 71.9999 13 72.4999C19.14 80.9399 25.64 89.1099 32.5 96.9999C39.36 89.1099 45.86 80.9399 52 72.4999C56.33 71.8299 60.67 71.8299 65 72.4999C56.52 83.1499 47.86 93.6499 39 104C47.92 114.88 56.59 125.88 65 137H52C45.99 128.33 39.49 120 32.5 112C25.99 120.36 19.49 128.7 13 137H0V135C9.18 125.32 17.84 115.15 26 104.5C17.84 93.8499 9.18 83.6799 0 73.9999V71.9999Z" fill="black"/>
<path opacity="0.95" fill-rule="evenodd" clip-rule="evenodd" d="M138 81.0001V128C136 132 133 135 129 137H82.0005C78.0205 135.18 75.1905 132.18 73.5005 128C72.5405 111.27 72.8805 94.6001 74.5005 78.0001C76.4605 75.3601 78.9605 73.5301 82.0005 72.5001C97.6705 71.8301 113.33 71.8301 129 72.5001C133.18 74.1901 136.18 77.0201 138 81.0001ZM86.0005 82.0001C99.0005 81.8301 112 82.0001 125 82.5001C125.83 83.3301 126.67 84.1701 127.5 85.0001C128.17 98.0001 128.17 111 127.5 124L125 126.5C112 127.17 99.0005 127.17 86.0005 126.5C85.1705 125.67 84.3305 124.83 83.5005 124C82.8305 111 82.8305 98.0001 83.5005 85.0001C84.5405 84.1301 85.3805 83.1301 86.0005 82.0001Z" fill="black"/>
</g>
<defs>
<clipPath id="clip0_67_124">
<rect width="138" height="137" fill="white"/>
</clipPath>
</defs>
</svg>
