<svg width="224" height="41" viewBox="0 0 224 41" fill="none" xmlns="http://www.w3.org/2000/svg">
<path d="M40.3568 17.3812L23.7186 0.800049L20.2998 4.21885L16.881 0.800049L0.299805 17.3812L3.71861 20.8001L0.299805 24.2189L16.881 40.8001L20.2998 37.3813L23.7186 40.8001L40.2998 24.2189L36.881 20.8001L40.3568 17.3812ZM37.1089 24.2189L31.24 30.1448L27.4223 26.3271L25.8269 27.9226L29.6445 31.7402L23.7186 37.6092L21.9522 35.7858L25.7699 31.9681L24.1745 30.3727L20.3568 34.1904L16.5391 30.3727L14.9437 31.9681L18.7613 35.7858L16.938 37.6092L11.0121 31.7402L14.8297 27.9226L13.2343 26.3271L9.41662 30.1448L3.54767 24.2189L5.31405 22.4525L9.13172 26.2701L10.7272 24.6747L6.90949 20.857L10.7272 17.0394L9.13172 15.4439L5.31405 19.2616L3.49069 17.4382L9.41662 11.5123L13.2343 15.33L14.8297 13.7345L11.0121 9.91686L16.881 4.04791L18.7044 5.87127L14.8867 9.68894L16.4821 11.2844L20.2998 7.46672L24.1175 11.2844L25.7129 9.68894L21.9522 5.81429L23.7756 3.99093L29.6445 9.91686L25.8269 13.7345L27.4223 15.33L31.24 11.5123L37.1089 17.3812L35.2856 19.2046L31.4679 15.3869L29.8725 16.9824L33.6901 20.8001L29.8725 24.6177L31.4679 26.2132L35.2856 22.3955L37.1089 24.2189ZM11.8668 20.8001L20.2998 29.2331L28.7329 20.8001L20.2998 12.367L11.8668 20.8001ZM20.2998 26.0422L15.1146 20.8001L20.2998 15.6149L25.485 20.8001L20.2998 26.0422Z" fill="white"/>
<path d="M65.0579 11.6351V14.6511H55.7759V19.4871H64.2909V22.4121H55.7759V27.2091H65.3049V30.2251H52.3569V11.6351H65.0579Z" fill="white"/>
<path d="M70.5222 30.2251H67.2592V15.8926H70.5222V19.9941C70.6782 19.2791 70.9014 18.6443 71.1917 18.0896C71.482 17.5306 71.8309 17.0604 72.2382 16.6791C72.6499 16.2934 73.1157 16.0009 73.6357 15.8016C74.16 15.6023 74.7299 15.5026 75.3452 15.5026C75.9909 15.5026 76.5715 15.6131 77.0872 15.8341C77.6072 16.0508 78.06 16.3714 78.4457 16.7961C78.8314 17.2164 79.1477 17.7364 79.3947 18.3561C79.6417 18.9714 79.815 19.6778 79.9147 20.4751C80.049 19.6908 80.257 18.9909 80.5387 18.3756C80.8247 17.7603 81.1779 17.2403 81.5982 16.8156C82.0185 16.3866 82.4995 16.0616 83.0412 15.8406C83.5872 15.6153 84.1852 15.5026 84.8352 15.5026C85.5805 15.5026 86.2414 15.6499 86.8177 15.9446C87.3984 16.2349 87.8859 16.6596 88.2802 17.2186C88.6789 17.7776 88.9822 18.4644 89.1902 19.2791C89.3982 20.0894 89.5022 21.0146 89.5022 22.0546V30.2251H86.2392V22.3796C86.2392 19.7189 85.2664 18.3886 83.3207 18.3886C82.8007 18.3886 82.3349 18.4818 81.9232 18.6681C81.5115 18.8544 81.1649 19.1274 80.8832 19.4871C80.6015 19.8424 80.3849 20.2801 80.2332 20.8001C80.0859 21.3201 80.0122 21.9159 80.0122 22.5876V30.2251H76.7492V22.3796C76.7492 19.7189 75.7764 18.3886 73.8307 18.3886C73.3107 18.3886 72.8449 18.4818 72.4332 18.6681C72.0215 18.8544 71.6749 19.1274 71.3932 19.4871C71.1115 19.8424 70.8949 20.2801 70.7432 20.8001C70.5959 21.3201 70.5222 21.9159 70.5222 22.5876V30.2251Z" fill="white"/>
<path d="M95.0871 20.2736C95.2605 19.5283 95.5031 18.8609 95.8151 18.2716C96.1271 17.6823 96.4976 17.1839 96.9266 16.7766C97.36 16.3649 97.8475 16.0508 98.3891 15.8341C98.9351 15.6131 99.5266 15.5026 100.164 15.5026C100.74 15.5026 101.286 15.5871 101.802 15.7561C102.322 15.9251 102.8 16.1656 103.238 16.4776C103.676 16.7896 104.07 17.1709 104.421 17.6216C104.772 18.0679 105.071 18.5706 105.318 19.1296C105.565 19.6886 105.754 20.2996 105.884 20.9626C106.018 21.6213 106.085 22.3189 106.085 23.0556C106.085 23.7923 106.018 24.4921 105.884 25.1551C105.754 25.8138 105.565 26.4226 105.318 26.9816C105.071 27.5406 104.772 28.0454 104.421 28.4961C104.07 28.9424 103.676 29.3238 103.238 29.6401C102.8 29.9521 102.322 30.1926 101.802 30.3616C101.286 30.5306 100.74 30.6151 100.164 30.6151C99.5266 30.6151 98.9351 30.5046 98.3891 30.2836C97.8475 30.0669 97.36 29.7549 96.9266 29.3476C96.4976 28.9359 96.1271 28.4354 95.8151 27.8461C95.5031 27.2568 95.2605 26.5894 95.0871 25.8441V30.2251H91.8241V10.9851H95.0871V20.2736ZM95.0871 23.0556C95.0871 23.8009 95.1738 24.4661 95.3471 25.0511C95.5248 25.6361 95.7805 26.1323 96.1141 26.5396C96.4521 26.9426 96.8616 27.2503 97.3426 27.4626C97.828 27.6749 98.3761 27.7811 98.9871 27.7811C99.6111 27.7811 100.159 27.6793 100.632 27.4756C101.108 27.2719 101.507 26.9708 101.828 26.5721C102.153 26.1734 102.397 25.6816 102.562 25.0966C102.727 24.5073 102.809 23.8269 102.809 23.0556C102.809 22.2843 102.727 21.6061 102.562 21.0211C102.397 20.4318 102.153 19.9399 101.828 19.5456C101.507 19.1469 101.108 18.8458 100.632 18.6421C100.159 18.4384 99.6111 18.3366 98.9871 18.3366C98.3718 18.3366 97.8215 18.4428 97.3361 18.6551C96.8551 18.8674 96.4478 19.1751 96.1141 19.5781C95.7805 19.9811 95.5248 20.4751 95.3471 21.0601C95.1738 21.6451 95.0871 22.3103 95.0871 23.0556Z" fill="white"/>
<path d="M111.425 30.2251H108.162V10.9851H111.425V30.2251Z" fill="white"/>
<path d="M127.37 25.4216C127.18 26.2319 126.883 26.9578 126.48 27.5991C126.077 28.2404 125.585 28.7843 125.004 29.2306C124.424 29.6769 123.765 30.0193 123.028 30.2576C122.292 30.4959 121.497 30.6151 120.643 30.6151C119.932 30.6151 119.261 30.5328 118.628 30.3681C118 30.2034 117.421 29.9673 116.892 29.6596C116.364 29.3476 115.889 28.9706 115.469 28.5286C115.049 28.0823 114.693 27.5796 114.403 27.0206C114.113 26.4573 113.889 25.8419 113.733 25.1746C113.577 24.5073 113.499 23.7966 113.499 23.0426C113.499 21.9159 113.668 20.8889 114.006 19.9616C114.349 19.0343 114.83 18.2413 115.449 17.5826C116.069 16.9196 116.812 16.4083 117.679 16.0486C118.546 15.6846 119.508 15.5026 120.565 15.5026C121.605 15.5026 122.547 15.6803 123.392 16.0356C124.242 16.3909 124.965 16.8958 125.563 17.5501C126.161 18.2001 126.623 18.9888 126.948 19.9161C127.273 20.8391 127.435 21.8704 127.435 23.0101C127.435 23.1791 127.431 23.3481 127.422 23.5171C127.418 23.6861 127.405 23.8638 127.383 24.0501H116.723C116.793 24.6481 116.934 25.1833 117.146 25.6556C117.363 26.1236 117.642 26.5223 117.984 26.8516C118.327 27.1809 118.728 27.4323 119.187 27.6056C119.651 27.7789 120.164 27.8656 120.727 27.8656C121.585 27.8656 122.303 27.6619 122.879 27.2546C123.455 26.8473 123.904 26.2363 124.224 25.4216H127.37ZM124.205 21.7101C124.032 20.5704 123.637 19.7059 123.022 19.1166C122.411 18.5229 121.596 18.2261 120.578 18.2261C120.058 18.2261 119.583 18.3041 119.154 18.4601C118.725 18.6161 118.348 18.8436 118.023 19.1426C117.703 19.4416 117.436 19.8078 117.224 20.2411C117.012 20.6701 116.86 21.1598 116.769 21.7101H124.205Z" fill="white"/>
<path d="M132.778 30.2251H129.515V15.8926H132.778V19.9941C132.934 19.2791 133.157 18.6443 133.447 18.0896C133.738 17.5306 134.087 17.0604 134.494 16.6791C134.906 16.2934 135.371 16.0009 135.891 15.8016C136.416 15.6023 136.986 15.5026 137.601 15.5026C138.247 15.5026 138.827 15.6131 139.343 15.8341C139.863 16.0508 140.316 16.3714 140.701 16.7961C141.087 17.2164 141.403 17.7364 141.65 18.3561C141.897 18.9714 142.071 19.6778 142.17 20.4751C142.305 19.6908 142.513 18.9909 142.794 18.3756C143.08 17.7603 143.434 17.2403 143.854 16.8156C144.274 16.3866 144.755 16.0616 145.297 15.8406C145.843 15.6153 146.441 15.5026 147.091 15.5026C147.836 15.5026 148.497 15.6499 149.073 15.9446C149.654 16.2349 150.142 16.6596 150.536 17.2186C150.935 17.7776 151.238 18.4644 151.446 19.2791C151.654 20.0894 151.758 21.0146 151.758 22.0546V30.2251H148.495V22.3796C148.495 19.7189 147.522 18.3886 145.576 18.3886C145.056 18.3886 144.591 18.4818 144.179 18.6681C143.767 18.8544 143.421 19.1274 143.139 19.4871C142.857 19.8424 142.641 20.2801 142.489 20.8001C142.342 21.3201 142.268 21.9159 142.268 22.5876V30.2251H139.005V22.3796C139.005 19.7189 138.032 18.3886 136.086 18.3886C135.566 18.3886 135.101 18.4818 134.689 18.6681C134.277 18.8544 133.931 19.1274 133.649 19.4871C133.367 19.8424 133.151 20.2801 132.999 20.8001C132.852 21.3201 132.778 21.9159 132.778 22.5876V30.2251Z" fill="white"/>
<path d="M177.331 11.6351L170.948 30.2251H166.021L159.729 11.6351H163.369L168.53 27.6966L173.769 11.6351H177.331Z" fill="white"/>
<path d="M177.293 21.0146C177.293 20.1696 177.449 19.4069 177.761 18.7266C178.073 18.0463 178.517 17.4678 179.094 16.9911C179.674 16.5101 180.378 16.1418 181.206 15.8861C182.038 15.6304 182.97 15.5026 184.001 15.5026C185.08 15.5026 186.044 15.6434 186.894 15.9251C187.747 16.2068 188.469 16.6141 189.058 17.1471C189.652 17.6801 190.105 18.3323 190.417 19.1036C190.729 19.8749 190.885 20.7481 190.885 21.7231V30.2251H187.622V26.4681C187.453 27.1094 187.197 27.6879 186.855 28.2036C186.517 28.7149 186.103 29.1504 185.613 29.5101C185.123 29.8654 184.567 30.1384 183.943 30.3291C183.323 30.5198 182.649 30.6151 181.921 30.6151C181.163 30.6151 180.472 30.5111 179.848 30.3031C179.228 30.0994 178.697 29.8113 178.255 29.4386C177.813 29.0659 177.471 28.6174 177.228 28.0931C176.99 27.5644 176.871 26.9794 176.871 26.3381C176.871 25.6708 177.003 25.0728 177.267 24.5441C177.531 24.0154 177.911 23.5669 178.405 23.1986C178.903 22.8303 179.51 22.5486 180.225 22.3536C180.94 22.1543 181.746 22.0546 182.643 22.0546H187.622V21.7231C187.622 21.1814 187.537 20.6961 187.368 20.2671C187.199 19.8338 186.954 19.4654 186.634 19.1621C186.317 18.8588 185.932 18.6269 185.477 18.4666C185.022 18.3063 184.508 18.2261 183.936 18.2261C183.355 18.2261 182.851 18.2933 182.422 18.4276C181.997 18.5576 181.646 18.7439 181.369 18.9866C181.091 19.2293 180.885 19.5218 180.751 19.8641C180.617 20.2064 180.55 20.5899 180.55 21.0146H177.293ZM182.831 24.3426C181.938 24.3426 181.262 24.4921 180.803 24.7911C180.348 25.0901 180.121 25.5321 180.121 26.1171C180.121 26.7324 180.37 27.2048 180.868 27.5341C181.371 27.8591 182.094 28.0216 183.039 28.0216C183.706 28.0216 184.32 27.9414 184.879 27.7811C185.442 27.6164 185.925 27.3889 186.328 27.0986C186.735 26.8083 187.052 26.4638 187.277 26.0651C187.507 25.6621 187.622 25.2244 187.622 24.7521V24.3426H182.831Z" fill="white"/>
<path d="M203.319 15.8926H206.582V30.2251H203.319V26.0001C203.159 26.7324 202.923 27.3846 202.611 27.9566C202.303 28.5286 201.928 29.0118 201.486 29.4061C201.048 29.8004 200.548 30.0994 199.985 30.3031C199.421 30.5111 198.806 30.6151 198.139 30.6151C197.346 30.6151 196.639 30.4699 196.02 30.1796C195.404 29.8849 194.882 29.4581 194.453 28.8991C194.028 28.3401 193.706 27.6554 193.485 26.8451C193.264 26.0304 193.153 25.1031 193.153 24.0631V15.8926H196.416V23.7381C196.416 26.3988 197.493 27.7291 199.647 27.7291C200.227 27.7291 200.745 27.6359 201.2 27.4496C201.655 27.2633 202.039 26.9924 202.351 26.6371C202.667 26.2774 202.907 25.8376 203.072 25.3176C203.237 24.7933 203.319 24.1974 203.319 23.5301V15.8926Z" fill="white"/>
<path d="M212.235 30.2251H208.972V10.9851H212.235V30.2251Z" fill="white"/>
<path d="M223.669 30.1146C222.512 30.4439 221.483 30.6086 220.582 30.6086C219.078 30.6086 217.934 30.1601 217.15 29.2631C216.365 28.3661 215.973 27.0401 215.973 25.2851V18.5446H214.101V15.8926H215.973V12.5906H219.236V15.8926H223.669V18.5446H219.236V25.2916C219.236 26.1799 219.401 26.8321 219.73 27.2481C220.06 27.6641 220.582 27.8721 221.297 27.8721C221.583 27.8721 221.919 27.8418 222.304 27.7811C222.69 27.7161 223.145 27.6143 223.669 27.4756V30.1146Z" fill="white"/>
</svg>
