<svg width="2035" height="444" viewBox="0 0 2035 444" fill="none" xmlns="http://www.w3.org/2000/svg">
<mask id="mask0_62_8" style="mask-type:luminance" maskUnits="userSpaceOnUse" x="0" y="0" width="2035" height="444">
<path d="M2034.6 0H0V444H2034.6V0Z" fill="white"/>
</mask>
<g mask="url(#mask0_62_8)">
<path d="M649.418 438.152V164.906H694.546L778.247 351.496C789.048 376.085 795.601 396.387 795.601 411.218H800.225C800.225 396.771 805.62 377.257 816.81 351.879L900.891 164.906H946.408V438.141H916.326V195.743H910.922C910.531 205.5 908.224 220.727 897.034 245.71L811.015 438.152H784.009L697.99 246.105C686.811 220.343 684.872 205.511 684.493 195.755H679.478V438.152H649.396H649.418ZM985.784 383.506C985.784 341.739 1023.58 318.708 1079.13 316.767L1131.59 314.422V309.346C1131.59 273.828 1106.9 262.504 1074.11 262.504C1048.27 262.504 1018.57 269.531 1015.49 307.394H986.565C988.883 261.343 1021.66 235.965 1074.5 235.965C1127.34 235.965 1160.52 262.504 1160.52 309.73V438.152H1131.6V395.608H1125.82C1111.16 428.397 1081.85 444.018 1051.37 444.018C1014.73 444.018 985.807 421.38 985.807 383.517L985.784 383.506ZM1131.59 346.037V337.453L1079.13 339.405C1050.19 340.578 1015.1 347.604 1015.1 380.393C1015.1 405.759 1033.61 419.43 1059.46 419.43C1099.18 419.43 1131.59 387.814 1131.59 346.048V346.037ZM1383.28 374.922C1369.39 422.938 1328.51 444.018 1286.08 444.018C1223.6 444.018 1187.72 397.966 1187.72 340.183C1187.72 282.401 1221.66 235.965 1284.93 235.965C1348.19 235.965 1379.82 276.942 1379.82 336.28V349.162H1216.27C1218.59 396.387 1248.28 418.257 1286.08 418.257C1316.95 418.257 1343.56 404.203 1353.97 374.934H1383.28V374.922ZM1216.65 324.178H1350.88C1348.19 281.238 1321.19 261.332 1284.93 261.332C1248.67 261.332 1220.14 283.574 1216.65 324.178ZM1430.33 378.036C1434.57 404.586 1453.46 419.418 1482.4 419.418C1509.39 419.418 1527.14 406.537 1527.14 384.679C1527.14 368.29 1516.73 356.188 1492.81 352.669L1457.32 347.604C1418.75 341.751 1400.62 318.325 1400.62 291.785C1400.62 257.823 1430.71 235.965 1476.99 235.965C1523.28 235.965 1556.06 257.823 1561.08 304.665H1531.76C1528.67 279.298 1513.24 260.948 1475.06 260.948C1443.82 260.948 1429.16 273.434 1429.16 290.995C1429.16 308.557 1443.44 319.497 1459.63 321.832L1500.13 328.465C1540.25 334.713 1554.52 358.128 1555.28 382.728C1556.45 419.813 1526.75 444.018 1482.78 444.018C1441.12 444.018 1405.63 421.764 1402.17 378.047H1430.32L1430.33 378.036ZM1609.54 381.938V265.617H1570.98V241.807H1609.54V196.916L1638.46 191.063V241.818H1695.55V265.629H1638.46V378.047C1638.46 404.203 1642.71 419.43 1665.47 419.43C1673.95 419.43 1683.61 417.479 1695.55 412.02V435.829C1682.43 441.288 1670.1 444.029 1656.98 444.029C1624.97 444.029 1609.53 425.294 1609.53 381.961L1609.54 381.938ZM1718.17 438.141V241.807H1747.1V281.227H1752.88L1754.04 277.709C1764.45 246.872 1789.14 235.942 1814.61 235.942C1820.78 235.942 1825.78 236.721 1831.19 237.893V264.433H1805.74C1756.75 264.433 1747.11 313.62 1747.11 345.235V438.141H1718.17ZM1835.58 340.161C1835.58 281.227 1873.77 235.942 1935.09 235.942C1996.43 235.942 2034.62 281.216 2034.62 340.161C2034.62 399.105 1996.43 443.996 1935.09 443.996C1873.77 443.996 1835.58 398.327 1835.58 340.161ZM1865.29 340.161C1865.29 389.348 1896.14 417.455 1935.09 417.455C1974.05 417.455 2004.91 389.348 2004.91 340.161C2004.91 290.972 1974.05 262.877 1935.09 262.877C1896.14 262.877 1865.29 290.972 1865.29 340.161Z" fill="black"/>
<path d="M216.475 114.223C216.475 186.916 187.944 256.643 137.144 308.043L67.7635 378.255L29.9141 339.951L144.309 224.182C146.171 222.299 144.855 219.062 142.214 219.062H0V164.888H158.587C160.994 164.888 162.945 162.915 162.945 160.478V0H216.475V114.223ZM432.952 219.073H289.611C287.394 219.073 286.278 216.355 287.85 214.776L403.071 98.1728L365.221 59.8692L295.819 130.104C245.019 181.503 216.486 251.23 216.486 323.924V438.146H270.018V277.656C270.018 275.22 271.968 273.246 274.376 273.246H432.963V219.073H432.952Z" fill="black"/>
</g>
</svg>
