<svg width="681" height="215" viewBox="0 0 681 215" fill="none" xmlns="http://www.w3.org/2000/svg">
<g clip-path="url(#clip0_67_134)">
<path d="M265.48 19.62H398.38V53.81H350.49V188.47H313.49V53.82H265.6V19.62H265.48Z" fill="black"/>
<path d="M481.05 107.56H469.81C449.67 107.56 437.61 116.46 437.61 139.06V188.59H402.48V74.6599H435.62L437.49 91.5199C442.29 80.2799 452.36 72.7799 467.58 72.7799C471.68 72.7799 476.25 73.2499 481.05 74.4199V107.56Z" fill="black"/>
<path d="M496.04 36.5999C496.04 25.3599 504.94 16.6899 516.18 16.6899C527.42 16.6899 536.09 25.3599 536.09 36.5999C536.09 47.8399 527.19 56.7399 516.18 56.7399C504.94 56.6199 496.04 47.7199 496.04 36.5999ZM498.85 74.4199H533.98V188.59H498.85V74.4199Z" fill="black"/>
<path d="M617.35 71.0299C653.65 71.0299 680.11 95.2699 680.11 131.33C680.11 167.39 653.65 191.4 617.35 191.4C581.05 191.4 554.35 167.4 554.35 131.33C554.23 95.2599 580.81 71.0299 617.35 71.0299ZM617.35 159.79C633.51 159.79 644.75 148.43 644.75 130.98C644.75 113.53 633.51 102.41 617.35 102.41C601.19 102.41 589.72 113.77 589.72 130.98C589.72 148.19 600.84 159.79 617.35 159.79Z" fill="black"/>
<path d="M227.08 143.51L157.97 23.7801C139.69 -7.92994 93.93 -7.92994 75.54 23.7801L6.43996 143.51C-11.84 175.22 10.99 214.89 47.66 214.89H185.87C222.54 214.89 245.37 175.22 227.09 143.51H227.08ZM116.76 172.74C90.94 172.74 70.07 151.87 70.07 126.05C70.07 100.23 90.94 79.3601 116.76 79.3601C142.58 79.3601 163.45 100.23 163.45 126.05C163.45 151.87 142.58 172.74 116.76 172.74Z" fill="black"/>
</g>
<defs>
<clipPath id="clip0_67_134">
<rect width="680.11" height="214.88" fill="white"/>
</clipPath>
</defs>
</svg>
