<svg width="681" height="215" viewBox="0 0 681 215" fill="none" xmlns="http://www.w3.org/2000/svg">
<g clip-path="url(#clip0_67_141)">
<path d="M265.48 19.6199H398.38V53.8099H350.49V188.47H313.49V53.8199H265.6V19.6199H265.48Z" fill="white"/>
<path d="M481.05 107.56H469.81C449.67 107.56 437.61 116.46 437.61 139.06V188.59H402.48V74.66H435.62L437.49 91.52C442.29 80.28 452.36 72.78 467.58 72.78C471.68 72.78 476.25 73.25 481.05 74.42V107.56Z" fill="white"/>
<path d="M496.04 36.5999C496.04 25.3599 504.94 16.6899 516.18 16.6899C527.42 16.6899 536.09 25.3599 536.09 36.5999C536.09 47.8399 527.19 56.7399 516.18 56.7399C504.94 56.6199 496.04 47.7199 496.04 36.5999ZM498.85 74.4199H533.98V188.59H498.85V74.4199Z" fill="white"/>
<path d="M617.35 71.03C653.65 71.03 680.11 95.27 680.11 131.33C680.11 167.39 653.65 191.4 617.35 191.4C581.05 191.4 554.35 167.4 554.35 131.33C554.23 95.26 580.81 71.03 617.35 71.03ZM617.35 159.79C633.51 159.79 644.75 148.43 644.75 130.98C644.75 113.53 633.51 102.41 617.35 102.41C601.19 102.41 589.72 113.77 589.72 130.98C589.72 148.19 600.84 159.79 617.35 159.79Z" fill="white"/>
<path d="M227.08 143.51L157.97 23.7801C139.69 -7.92994 93.93 -7.92994 75.54 23.7801L6.43996 143.51C-11.84 175.22 10.99 214.89 47.66 214.89H185.87C222.54 214.89 245.37 175.22 227.09 143.51H227.08ZM116.76 172.74C90.94 172.74 70.07 151.87 70.07 126.05C70.07 100.23 90.94 79.3601 116.76 79.3601C142.58 79.3601 163.45 100.23 163.45 126.05C163.45 151.87 142.58 172.74 116.76 172.74Z" fill="white"/>
</g>
<defs>
<clipPath id="clip0_67_141">
<rect width="680.11" height="214.88" fill="white"/>
</clipPath>
</defs>
</svg>
