<svg width="441" height="60" viewBox="0 0 441 60" fill="none" xmlns="http://www.w3.org/2000/svg">
<g clip-path="url(#clip0_45_2)">
<path d="M39.6442 15.5734C39.6442 18.3903 38.7991 20.5634 37.109 22.0926C35.4189 23.6217 33.2861 24.3863 30.7106 24.3863C28.1352 24.3863 26.0024 23.6217 24.3122 22.0926C22.6221 20.5634 21.777 18.3903 21.777 15.5734C21.777 13.9638 22.0587 12.2334 22.6221 10.3823C23.1855 8.53119 23.9098 6.84105 24.7951 5.31187C25.6804 3.7827 26.6462 2.53521 27.6925 1.56942C28.7388 0.523139 29.7448 0 30.7106 0C31.6764 0 32.6824 0.523139 33.7287 1.56942C34.775 2.53521 35.7408 3.7827 36.6261 5.31187C37.5114 6.84105 38.2358 8.53119 38.7991 10.3823C39.3625 12.2334 39.6442 13.9638 39.6442 15.5734ZM55.5798 36.0966C54.3726 36.0966 53.4068 35.8551 52.6824 35.3722C51.9581 34.8088 51.274 34.2052 50.6301 33.5614C49.9863 32.837 49.3022 32.2334 48.5778 31.7505C47.8535 31.1871 46.9279 30.9054 45.8012 30.9054C44.4329 30.9054 43.3062 31.3883 42.4209 32.3541C41.5356 33.3199 41.0929 34.5272 41.0929 35.9759C41.0929 36.9417 41.2539 37.7867 41.5758 38.5111C41.9782 39.1549 42.3806 39.7586 42.783 40.3219C43.1855 40.8853 43.5476 41.4085 43.8696 41.8913C44.272 42.3742 44.4732 42.8974 44.4732 43.4608C44.4732 44.1851 44.1915 44.7485 43.6281 45.1509C43.1452 45.4728 42.6221 45.6338 42.0587 45.6338C41.4148 45.6338 40.6905 45.3521 39.8857 44.7887C39.1613 44.1449 38.4772 43.34 37.8334 42.3742C37.27 41.4084 36.7871 40.3219 36.3847 39.1147C35.9822 37.827 35.781 36.5392 35.781 35.2515C35.781 33.6418 36.103 32.0322 36.7468 30.4225C37.3907 28.8129 38.3162 27.3642 39.5235 26.0765C40.7307 24.7083 42.2197 23.6217 43.9903 22.8169C45.7609 22.0121 47.8132 21.6097 50.1472 21.6097C53.769 21.6097 56.5456 22.5352 58.4772 24.3863C60.4088 26.1569 61.3746 28.0483 61.3746 30.0604C61.3746 31.5895 60.8515 32.998 59.8052 34.2857C58.7589 35.493 57.3504 36.0966 55.5798 36.0966ZM5.8414 36.0966C4.07078 36.0966 2.66232 35.493 1.61605 34.2857C0.56977 32.998 0.0466309 31.5895 0.0466309 30.0604C0.0466309 28.0483 1.01243 26.1569 2.94402 24.3863C4.8756 22.5352 7.65226 21.6097 11.274 21.6097C13.608 21.6097 15.6603 22.0121 17.4309 22.8169C19.2016 23.6217 20.6905 24.7083 21.8977 26.0765C23.105 27.3642 24.0305 28.8129 24.6744 30.4225C25.3183 32.0322 25.6402 33.6418 25.6402 35.2515C25.6402 36.5392 25.439 37.827 25.0366 39.1147C24.6342 40.3219 24.111 41.4084 23.4672 42.3742C22.9038 43.34 22.2197 44.1449 21.4148 44.7887C20.6905 45.3521 20.0064 45.6338 19.3625 45.6338C18.7991 45.6338 18.2358 45.4728 17.6724 45.1509C17.1895 44.7485 16.948 44.1851 16.948 43.4608C16.948 42.8974 17.109 42.3742 17.4309 41.8913C17.8334 41.4085 18.2358 40.8853 18.6382 40.3219C19.0406 39.7586 19.4028 39.1549 19.7247 38.5111C20.1271 37.7867 20.3283 36.9417 20.3283 35.9759C20.3283 34.5272 19.8857 33.3199 19.0004 32.3541C18.115 31.3883 16.9883 30.9054 15.6201 30.9054C14.4933 30.9054 13.5678 31.1871 12.8434 31.7505C12.1191 32.2334 11.435 32.837 10.7911 33.5614C10.1472 34.2052 9.46313 34.8088 8.73878 35.3722C8.01444 35.8551 7.04864 36.0966 5.8414 36.0966ZM38.3162 52.5151C38.3162 54.7686 37.6321 56.5795 36.2639 57.9477C34.8957 59.3159 33.0446 60 30.7106 60C28.3766 60 26.5255 59.3159 25.1573 57.9477C23.7891 56.5795 23.105 54.7686 23.105 52.5151C23.105 50.2616 23.7891 48.4507 25.1573 47.0825C26.5255 45.7143 28.3766 45.0302 30.7106 45.0302C33.0446 45.0302 34.8957 45.7143 36.2639 47.0825C37.6321 48.4507 38.3162 50.2616 38.3162 52.5151Z" fill="white"/>
<path d="M86.6972 42.0336H104.059V46.0227H82.0734V13.1574H86.6972V42.0336Z" fill="white"/>
<path d="M104.526 39.5857C104.526 33.8286 111.008 32.1513 121.026 31.018V30.4287C121.026 25.9862 118.533 24.4903 115.496 24.4903C112.096 24.4903 110.101 26.3488 109.92 29.3407H105.659C106.067 24.0823 110.691 21.1357 115.45 21.1357C122.16 21.1357 125.197 24.3543 125.151 31.1993L125.106 36.8204C125.061 40.9003 125.287 43.7108 125.741 46.0227H121.57C121.434 45.1161 121.298 44.1188 121.253 42.6682C119.757 45.1614 117.218 46.6121 112.912 46.6121C108.333 46.6121 104.526 44.0735 104.526 39.5857ZM121.344 34.2819C113.864 35.0525 109.104 36.1405 109.104 39.495C109.104 41.8069 110.872 43.3482 113.819 43.3482C117.672 43.3482 121.344 41.5803 121.344 35.8231V34.2819Z" fill="white"/>
<path d="M147.577 21.6344L138.874 47.0654C137.106 52.3692 135.837 53.9558 130.397 53.9558H128.266V50.5106H129.943C132.663 50.5106 133.978 50.3292 135.066 46.5214L135.247 46.0227L126.453 21.6344H131.031L137.242 40.447L143.271 21.6344H147.577Z" fill="white"/>
<path d="M151.796 35.1885C151.977 40.447 155.694 42.9855 159.321 42.9855C162.947 42.9855 164.942 41.3536 165.985 38.951H170.246C169.112 43.1669 165.259 46.6121 159.321 46.6121C151.614 46.6121 147.353 41.0816 147.353 33.8739C147.353 26.1675 152.521 21.2264 159.185 21.2264C166.619 21.2264 171.107 27.4821 170.563 35.1885H151.796ZM151.841 31.6526H166.211C166.121 28.2074 163.537 24.7622 159.185 24.7622C155.513 24.7622 152.204 26.7568 151.841 31.6526Z" fill="white"/>
<path d="M186.16 25.9409C185.298 25.8502 184.528 25.7595 183.848 25.7595C180.04 25.7595 178.136 27.8901 178.136 33.2392V46.0227H174.011V21.6344H178.045V25.8955C179.269 23.1303 181.762 21.589 184.936 21.4984C185.344 21.4984 185.706 21.4984 186.16 21.5437V25.9409Z" fill="white"/>
<path d="M203.058 46.0227V20.3197H195.442V17.5092C200.157 17.3279 202.559 16.7386 204.373 13.1574H207.183V46.0227H203.058Z" fill="white"/>
<path d="M223.524 13.1574H244.875V17.1465H228.148V27.1195H243.923V31.1087H228.148V46.0227H223.524V13.1574Z" fill="white"/>
<path d="M268.7 33.9192C268.7 42.7589 262.671 46.6121 257.004 46.6121C251.338 46.6121 245.309 42.7589 245.309 33.9192C245.309 25.0796 251.338 21.2264 257.004 21.2264C262.671 21.2264 268.7 25.0796 268.7 33.9192ZM257.004 42.9855C260.721 42.9855 264.303 40.175 264.303 33.9192C264.303 27.4368 260.721 24.8529 257.004 24.8529C253.287 24.8529 249.706 27.2555 249.706 33.9192C249.706 40.4016 253.287 42.9855 257.004 42.9855Z" fill="white"/>
<path d="M287.369 42.5322C285.964 44.8441 283.743 46.6121 279.708 46.6121C274.042 46.6121 271.911 42.8042 271.911 37.2284V21.6344H276.036V36.0045C276.036 39.767 276.671 43.0309 281.159 43.0309C285.057 43.0309 287.369 40.2656 287.369 35.0525V21.6344H291.495V46.0227H287.369V42.5322Z" fill="white"/>
<path d="M300.804 25.3062C302.209 22.9943 304.566 21.2264 308.691 21.2264C314.585 21.2264 316.715 25.0342 316.715 30.61V46.0227H312.59V31.834C312.59 28.0714 311.955 24.8076 307.241 24.8076C303.252 24.8076 300.804 27.5728 300.804 32.7859V46.0227H296.679V21.6344H300.804V25.3062Z" fill="white"/>
<path d="M338.253 13.1574H342.379V46.0227H338.253V42.3509C336.757 44.9348 334.173 46.6121 330.275 46.6121C324.699 46.6121 319.849 41.9882 319.849 33.9192C319.849 25.8955 324.699 21.2264 330.275 21.2264C334.173 21.2264 336.757 22.9036 338.253 25.4875V13.1574ZM331.318 24.7622C327.102 24.7622 324.337 28.1168 324.337 33.9192C324.337 39.7217 327.102 43.0762 331.318 43.0762C334.989 43.0762 338.435 40.3563 338.435 33.9192C338.435 27.4821 334.989 24.7622 331.318 24.7622Z" fill="white"/>
<path d="M346.074 39.5857C346.074 33.8286 352.556 32.1513 362.574 31.018V30.4287C362.574 25.9862 360.081 24.4903 357.044 24.4903C353.644 24.4903 351.65 26.3488 351.468 29.3407H347.207C347.615 24.0823 352.239 21.1357 356.999 21.1357C363.708 21.1357 366.745 24.3543 366.7 31.1993L366.654 36.8204C366.609 40.9003 366.836 43.7108 367.289 46.0227H363.118C362.982 45.1161 362.846 44.1188 362.801 42.6682C361.305 45.1614 358.767 46.6121 354.46 46.6121C349.882 46.6121 346.074 44.0735 346.074 39.5857ZM362.892 34.2819C355.412 35.0525 350.652 36.1405 350.652 39.495C350.652 41.8069 352.42 43.3482 355.367 43.3482C359.22 43.3482 362.892 41.5803 362.892 35.8231V34.2819Z" fill="white"/>
<path d="M372.665 15.5146H376.79V21.6344H381.414V24.9436H376.79V39.4043C376.79 41.9429 376.971 42.5775 379.329 42.5775H381.414V46.0227H378.422C373.753 46.0227 372.665 44.9801 372.665 39.903V24.9436H368.812V21.6344H372.665V15.5146Z" fill="white"/>
<path d="M389.436 13.1574V18.1438H385.311V13.1574H389.436ZM389.436 21.6344V46.0227H385.311V21.6344H389.436Z" fill="white"/>
<path d="M416.424 33.9192C416.424 42.7589 410.395 46.6121 404.729 46.6121C399.062 46.6121 393.033 42.7589 393.033 33.9192C393.033 25.0796 399.062 21.2264 404.729 21.2264C410.395 21.2264 416.424 25.0796 416.424 33.9192ZM404.729 42.9855C408.446 42.9855 412.027 40.175 412.027 33.9192C412.027 27.4368 408.446 24.8529 404.729 24.8529C401.011 24.8529 397.43 27.2555 397.43 33.9192C397.43 40.4016 401.011 42.9855 404.729 42.9855Z" fill="white"/>
<path d="M424.123 25.3062C425.529 22.9943 427.886 21.2264 432.011 21.2264C437.904 21.2264 440.035 25.0342 440.035 30.61V46.0227H435.91V31.834C435.91 28.0714 435.275 24.8076 430.56 24.8076C426.571 24.8076 424.123 27.5728 424.123 32.7859V46.0227H419.998V21.6344H424.123V25.3062Z" fill="white"/>
</g>
<defs>
<clipPath id="clip0_45_2">
<rect width="441" height="60" fill="white"/>
</clipPath>
</defs>
</svg>
