<?xml version="1.0" encoding="UTF-8"?>
<svg id="Layer_1" data-name="Layer 1" xmlns="http://www.w3.org/2000/svg" width="576.57" height="90.56" viewBox="0 0 576.57 90.56">
  <defs>
    <style>
      .cls-1 {
        fill: #fff;
        stroke-width: 0px;
      }
    </style>
  </defs>
  <path class="cls-1" d="M129.19,22.85c-13.33,0-24.17,10.47-24.17,23.17s10.84,23.3,24.17,23.3,24.29-10.47,24.29-23.3-10.96-23.17-24.29-23.17ZM129.07,58.73c-6.98,0-12.21-5.36-12.21-12.71s5.48-12.58,12.21-12.58,12.21,5.48,12.21,12.58-5.36,12.71-12.21,12.71Z"/>
  <path class="cls-1" d="M172.42,29.57v-5.98h-12.09v44.6h12.09v-19.68c0-13.46,12.33-14.08,15.2-13.83v-11.84c-3.11-.12-10.71.75-15.2,6.73Z"/>
  <path class="cls-1" d="M226.99,6.9v21.43c-2.37-2.99-7.1-5.61-13.58-5.61-14.2,0-22.43,10.47-22.43,23.3s8.35,23.3,22.43,23.3c6.35,0,11.71-2.99,13.58-5.48v4.36h11.96V6.9h-11.96ZM215.16,58.48c-7.48,0-12.21-5.48-12.21-12.58s4.49-12.58,12.21-12.58,12.33,5.23,12.21,12.58c0,7.85-4.61,12.58-12.21,12.58Z"/>
  <rect class="cls-1" x="248.67" y="23.72" width="12.21" height="44.48"/>
  <path class="cls-1" d="M254.77,5.9c-3.74,0-6.85,2.87-6.85,6.48s3.11,6.6,6.85,6.6,6.73-2.99,6.6-6.6c0-3.61-2.99-6.48-6.6-6.48Z"/>
  <path class="cls-1" d="M294.01,22.85c-3.99,0-8.97,1.74-11.96,4.73v-3.99h-12.09v44.6h12.09v-23.55c-.25-9.72,5.11-11.71,8.47-11.71,4.73,0,8.6,2.12,8.6,8.97v26.29h12.46v-26.29c0-11.59-4.73-19.06-17.57-19.06Z"/>
  <path class="cls-1" d="M355.44,28.33c-2.37-2.99-7.1-5.61-13.58-5.61-14.2,0-22.43,10.47-22.43,23.3s8.35,23.3,22.43,23.3c6.35,0,11.71-2.99,13.58-5.48v4.36h11.96V23.72h-11.96v4.61ZM343.72,58.48c-7.48,0-12.21-5.48-12.21-12.58s4.49-12.58,12.21-12.58,12.21,5.23,12.21,12.58c0,7.85-4.61,12.58-12.21,12.58Z"/>
  <rect class="cls-1" x="376.74" y="6.9" width="12.21" height="61.3"/>
  <path class="cls-1" d="M417.6,40.54c-1.99-.25-8.47-1-8.47-3.99,0-2.24,3.49-3.36,5.86-3.36,4.98,0,9.34,2.12,12.71,4.11l6.35-8.22c-5.86-4.36-11.46-6.35-18.56-6.35-4.36,0-18.44,1-18.44,14.08,0,11.21,11.59,13.08,17.69,14.08,2.37.37,8.6.75,8.6,3.74,0,2.24-2.62,3.99-6.35,3.99-5.36,0-10.96-2.37-14.45-4.73l-6.35,8.47c4.86,3.86,11.34,6.98,20.81,6.73,11.71,0,18.31-5.23,18.31-14.45,0-11.46-10.09-12.83-17.69-14.08Z"/>
  <path class="cls-1" d="M468.81,22.72c-6.48,0-11.34,2.62-13.58,5.61V6.9h-11.96v61.3h11.96v-4.36c1.87,2.62,7.23,5.48,13.58,5.48,14.2,0,22.43-10.47,22.43-23.3s-8.35-23.3-22.43-23.3ZM467.06,58.48c-7.6,0-12.21-4.73-12.21-12.58,0-7.35,4.61-12.58,12.21-12.58s12.21,5.23,12.21,12.58-4.73,12.58-12.21,12.58Z"/>
  <path class="cls-1" d="M521.38,22.85c-13.33,0-24.17,10.47-24.17,23.17s10.84,23.3,24.17,23.3,24.29-10.47,24.29-23.3-10.96-23.17-24.29-23.17ZM521.38,58.73c-6.98,0-12.21-5.36-12.21-12.71s5.36-12.58,12.21-12.58,12.21,5.48,12.21,12.58-5.36,12.71-12.21,12.71Z"/>
  <path class="cls-1" d="M40.26,90.56c22.24,0,40.26-18.03,40.26-40.26H0c0,22.24,18.03,40.26,40.26,40.26Z"/>
  <path class="cls-1" d="M16.87,42.32h46.13c2.84,0,5.15-2.31,5.15-5.15V5.15c0-2.84-2.31-5.15-5.15-5.15H16.87c-2.84,0-5.15,2.31-5.15,5.15v32.02c0,2.84,2.31,5.15,5.15,5.15ZM50.71,13.7c4.14,0,7.62,3.32,7.62,7.46-.17,4.14-3.48,7.46-7.46,7.46s-7.62-3.31-7.62-7.46c.17-4.14,3.32-7.46,7.46-7.46ZM29,13.7c4.14,0,7.62,3.32,7.62,7.46s-3.31,7.46-7.46,7.46-7.62-3.31-7.62-7.46c.17-4.14,3.31-7.46,7.46-7.46Z"/>
  <path class="cls-1" d="M576.57,23.74h-8.97v-11.29h-11.96v11.29h-5.48v10.59h5.48v23.79c0,9.34,5.86,11.09,15.2,11.09,1.74,0,3.99-.25,5.48-.37v-10.22c-.75,0-1.74.12-3.11.12-5.36,0-5.48-3.11-5.48-5.6l-.12-18.81h8.97v-10.59Z"/>
</svg>